<svg width="373" height="259" viewBox="0 0 373 259" fill="none" xmlns="http://www.w3.org/2000/svg">
<path d="M24.3999 73.0001V123.3C24.3999 124.95 25.5599 125.63 26.9999 124.8L143.78 57.3701C144.536 56.8762 145.165 56.2117 145.616 55.43C146.068 54.6483 146.329 53.7714 146.38 52.8701V2.53008C146.38 0.880078 145.21 0.200078 143.78 1.03008L26.9999 68.4601C26.2372 68.9561 25.6036 69.6265 25.1515 70.416C24.6994 71.2055 24.4417 72.0913 24.3999 73.0001Z" fill="#F0F0F0"/>
<path d="M32.5299 72.21L67.5299 52.01C69.1399 51.08 70.4299 51.83 70.4299 53.68V88.85C70.375 89.853 70.0837 90.8289 69.5797 91.6978C69.0757 92.5668 68.3733 93.3043 67.5299 93.85L32.5299 114.06C30.9299 114.98 29.6299 114.23 29.6299 112.38V77.23C29.6841 76.224 29.975 75.2451 30.4789 74.3728C30.9828 73.5005 31.6855 72.7595 32.5299 72.21Z" fill="#FAFAFA"/>
<path d="M60.8699 69.56L50.4599 91.14L45.1599 88.08C44.651 87.8017 44.0539 87.7316 43.4944 87.8846C42.9348 88.0375 42.4565 88.4015 42.1599 88.9L29.6299 110.51V112.4C29.6299 114.25 30.9299 115 32.5299 114.08L67.5299 93.87C68.3716 93.3225 69.0727 92.5847 69.5765 91.7161C70.0803 90.8475 70.3726 89.8725 70.4299 88.87V76.5L63.4299 69.1601C63.2736 68.9414 63.0596 68.7706 62.8118 68.6665C62.564 68.5625 62.2921 68.5294 62.0266 68.5708C61.761 68.6123 61.5123 68.7268 61.308 68.9015C61.1038 69.0762 60.9521 69.3042 60.8699 69.56Z" fill="#DA002B"/>
<path d="M34.8899 85.0801C37.0525 83.6696 38.8522 81.7692 40.1431 79.5332C41.434 77.2971 42.1798 74.7883 42.3199 72.2101C42.3199 70.0401 41.6199 68.4701 40.4699 67.6301L32.5299 72.2101C31.6882 72.7576 30.9871 73.4955 30.4833 74.3641C29.9795 75.2327 29.6871 76.2076 29.6299 77.2101V85.5801C30.9999 86.3801 32.8399 86.2601 34.8899 85.0801Z" fill="#DA002B"/>
<path d="M83.4898 46.08L136.08 15.71C137.28 15.02 138.25 15.51 138.25 16.81C138.197 17.5385 137.973 18.2443 137.596 18.8698C137.219 19.4954 136.699 20.0231 136.08 20.41L83.4898 50.77C82.2898 51.46 81.3198 50.97 81.3198 49.67C81.3742 48.9432 81.5989 48.2395 81.976 47.6158C82.353 46.9921 82.8716 46.4659 83.4898 46.08Z" fill="#FAFAFA"/>
<path d="M83.4898 56.4702L136.08 26.1002C137.28 25.4102 138.25 25.9002 138.25 27.2002C138.197 27.9287 137.973 28.6344 137.596 29.26C137.219 29.8855 136.699 30.4132 136.08 30.8002L83.4898 61.1602C82.2898 61.8502 81.3198 61.3602 81.3198 60.0702C81.3726 59.3417 81.5967 58.6359 81.9738 58.0103C82.3509 57.3848 82.8703 56.8571 83.4898 56.4702Z" fill="#FAFAFA"/>
<path d="M83.4898 66.8601L136.08 36.5001C137.28 35.8101 138.25 36.3001 138.25 37.5901C138.197 38.3186 137.973 39.0244 137.596 39.6499C137.219 40.2755 136.699 40.8032 136.08 41.1901L83.4898 71.5501C82.2898 72.2501 81.3198 71.7601 81.3198 70.4601C81.3726 69.7316 81.5967 69.0258 81.9738 68.4003C82.3509 67.7747 82.8703 67.247 83.4898 66.8601Z" fill="#FAFAFA"/>
<path d="M83.4898 77.2502L136.08 46.8902C137.28 46.2002 138.25 46.6902 138.25 47.9902C138.195 48.717 137.971 49.4207 137.594 50.0444C137.217 50.6681 136.698 51.1943 136.08 51.5802L83.4898 82.0002C82.2898 82.6902 81.3198 82.2002 81.3198 80.9002C81.3649 80.163 81.5854 79.4472 81.9628 78.8124C82.3402 78.1775 82.8637 77.642 83.4898 77.2502Z" fill="#FAFAFA"/>
<path d="M0 231.26V157.45C0.0480544 156.548 0.30863 155.67 0.760475 154.888C1.21232 154.106 1.84263 153.442 2.6 152.95L90.92 101.95C92.35 101.12 93.52 101.79 93.52 103.45V177.26C93.4696 178.161 93.208 179.038 92.7564 179.82C92.3047 180.602 91.6757 181.266 90.92 181.76L2.6 232.76C1.16 233.59 0 232.92 0 231.26Z" fill="#F0F0F0"/>
<path d="M0 227.57V231.26C0 232.92 1.16 233.59 2.6 232.76L90.92 181.76C91.6757 181.266 92.3047 180.602 92.7564 179.82C93.208 179.038 93.4696 178.161 93.52 177.26V173.56L0 227.57Z" fill="#DA002B"/>
<path d="M42.7302 160.63L51.7302 160.16C52.8302 160.1 53.1302 160.72 52.4002 161.56L42.0602 173.32C41.3302 174.15 40.7402 173.92 40.7402 172.82V162.74C40.7441 162.202 40.9515 161.685 41.3206 161.294C41.6898 160.903 42.1934 160.665 42.7302 160.63Z" fill="#DA002B"/>
<path d="M40.4101 179.77C39.3316 179.784 38.2687 179.511 37.3301 178.98C35.1101 177.69 33.8901 174.98 33.8901 171.44C33.8901 164.22 38.9801 155.44 45.2401 151.79C48.3301 150 51.2401 149.73 53.4801 151.01C55.7201 152.29 56.9301 155.01 56.9301 158.54C56.9301 165.77 51.8301 174.54 45.5801 178.19C44.0244 179.159 42.2419 179.704 40.4101 179.77ZM50.4101 150.9C48.701 150.967 47.0392 151.481 45.5901 152.39C39.5201 155.89 34.5901 164.44 34.5901 171.44C34.5901 174.76 35.6901 177.23 37.6901 178.38C39.6901 179.53 42.3701 179.26 45.2401 177.6C51.3101 174.09 56.2401 165.6 56.2401 158.54C56.2401 155.22 55.1401 152.76 53.1401 151.6C52.3034 151.132 51.3589 150.891 50.4001 150.9H50.4101Z" fill="#DA002B"/>
<path d="M287.41 46.53C287.291 46.5286 287.174 46.4977 287.07 46.44L284.26 44.81C284.182 44.7654 284.114 44.7059 284.06 44.635C284.005 44.5641 283.965 44.4831 283.942 44.3968C283.919 44.3104 283.913 44.2203 283.925 44.1317C283.936 44.043 283.965 43.9575 284.01 43.88C284.055 43.8025 284.114 43.7346 284.185 43.6801C284.256 43.6256 284.337 43.5856 284.423 43.5624C284.509 43.5392 284.6 43.5332 284.688 43.5448C284.777 43.5564 284.862 43.5854 284.94 43.63L287.75 45.26C287.827 45.3046 287.895 45.364 287.95 45.4349C288.005 45.5058 288.045 45.5867 288.068 45.6731C288.091 45.7595 288.097 45.8497 288.085 45.9383C288.074 46.027 288.045 46.1126 288 46.19C287.94 46.2936 287.854 46.3795 287.751 46.4392C287.647 46.4989 287.529 46.5302 287.41 46.53Z" fill="white"/>
<path d="M105.76 105.82V254.6C105.76 256.26 106.92 256.93 108.35 256.1L281.89 155.91C282.645 155.416 283.275 154.752 283.726 153.97C284.178 153.188 284.439 152.311 284.49 151.41V2.63002C284.49 0.970019 283.32 0.300019 281.89 1.13002L108.35 101.32C107.595 101.814 106.967 102.479 106.517 103.26C106.067 104.042 105.807 104.919 105.76 105.82Z" fill="#455A64"/>
<path d="M126.07 133.3C126.07 138.49 129.94 140.45 134.73 137.69L272.3 58.26V39.5L134.73 118.92C129.94 121.69 126.07 128.12 126.07 133.3Z" fill="#F5F5F5"/>
<path d="M284 32.7701C288.78 30.0101 292.66 31.9701 292.66 37.1501C292.66 42.3301 288.78 48.7701 284 51.5301L272.35 58.2601V39.5001L284 32.7701Z" fill="#DA002B"/>
<path d="M279.8 48.5799C279.301 48.587 278.811 48.4591 278.38 48.2099C277.848 47.8543 277.423 47.3618 277.148 46.7845C276.874 46.2072 276.76 45.5664 276.82 44.9299C276.891 43.3647 277.338 41.8396 278.121 40.4824C278.904 39.1253 280.001 37.9756 281.32 37.1299C281.823 36.7192 282.44 36.4715 283.088 36.4198C283.735 36.3681 284.384 36.5149 284.946 36.8405C285.508 37.1662 285.958 37.6554 286.236 38.243C286.513 38.8306 286.605 39.4887 286.5 40.1299C286.425 41.6945 285.978 43.2187 285.195 44.5755C284.412 45.9323 283.317 47.0824 282 47.9299C281.336 48.3356 280.577 48.5597 279.8 48.5799ZM283.51 37.8299C282.973 37.8564 282.453 38.0218 282 38.3099C280.895 39.0437 279.975 40.0231 279.313 41.1716C278.65 42.3202 278.262 43.6065 278.18 44.9299C278.076 45.3282 278.107 45.7492 278.266 46.1286C278.425 46.508 278.704 46.8246 279.061 47.0301C279.417 47.2355 279.831 47.3184 280.239 47.266C280.647 47.2136 281.027 47.0288 281.32 46.7399C282.425 46.0073 283.346 45.0281 284.008 43.8793C284.671 42.7306 285.058 41.4437 285.14 40.1199C285.191 39.7234 285.136 39.3204 284.982 38.9516C284.827 38.5828 284.578 38.2614 284.26 38.0199C284.032 37.8893 283.772 37.8236 283.51 37.8299Z" fill="white"/>
<path d="M286 73.83L153 150.57C152.241 151.061 151.61 151.725 151.158 152.507C150.706 153.289 150.446 154.168 150.4 155.07V196C150.4 197.66 151.56 198.33 153 197.5L286 120.73C286.757 120.238 287.388 119.574 287.839 118.792C288.291 118.01 288.552 117.132 288.6 116.23V75.33C288.55 73.67 287.39 73 286 73.83Z" fill="#DA002B"/>
<path opacity="0.2" d="M286 73.83L153 150.57C152.241 151.061 151.61 151.725 151.158 152.507C150.706 153.289 150.446 154.168 150.4 155.07V196C150.4 197.66 151.56 198.33 153 197.5L286 120.73C286.757 120.238 287.388 119.574 287.839 118.792C288.291 118.01 288.552 117.132 288.6 116.23V75.33C288.55 73.67 287.39 73 286 73.83Z" fill="white"/>
<path d="M201.35 129.48L225.45 115.56C226.65 114.87 227.62 115.36 227.62 116.66C227.565 117.387 227.341 118.091 226.964 118.714C226.587 119.338 226.068 119.864 225.45 120.25L201.35 134.17C200.15 134.86 199.18 134.37 199.18 133.07C199.234 132.343 199.459 131.64 199.836 131.016C200.213 130.392 200.731 129.866 201.35 129.48Z" fill="white"/>
<path d="M199.18 142.45C199.18 143.75 200.18 144.24 201.35 143.55L274.2 101.49C274.817 101.101 275.334 100.573 275.709 99.9476C276.084 99.3222 276.307 98.6173 276.36 97.8899C276.36 96.5999 275.36 96.1099 274.2 96.7999L201.35 138.86C200.731 139.246 200.213 139.772 199.836 140.396C199.459 141.019 199.234 141.723 199.18 142.45Z" fill="white"/>
<path d="M199.18 151.83C199.18 153.13 200.18 153.62 201.35 152.93L274.2 110.87C274.817 110.481 275.334 109.953 275.709 109.328C276.084 108.702 276.307 107.997 276.36 107.27C276.36 105.98 275.36 105.49 274.2 106.18L201.35 148.24C200.731 148.626 200.213 149.152 199.836 149.776C199.459 150.4 199.234 151.103 199.18 151.83Z" fill="white"/>
<path d="M199.18 161.21C199.18 162.51 200.18 163 201.35 162.31L274.2 120.25C274.817 119.861 275.334 119.333 275.709 118.708C276.084 118.082 276.307 117.377 276.36 116.65C276.36 115.36 275.36 114.87 274.2 115.56L201.35 157.62C200.731 158.006 200.213 158.532 199.836 159.156C199.459 159.779 199.234 160.483 199.18 161.21Z" fill="white"/>
<path d="M157.1 152.91L188.46 134.8C189.9 133.98 191.06 134.65 191.06 136.3V167.83C191.011 168.732 190.75 169.609 190.298 170.391C189.847 171.173 189.217 171.837 188.46 172.33L157.1 190.43C155.67 191.26 154.5 190.59 154.5 188.94V157.41C154.548 156.508 154.809 155.63 155.26 154.848C155.712 154.066 156.343 153.402 157.1 152.91Z" fill="white"/>
<path d="M182.5 150.54L173.17 169.88L168.42 167.14C167.961 166.875 167.416 166.803 166.904 166.94C166.392 167.077 165.956 167.412 165.69 167.87L154.5 187.24V188.93C154.5 190.59 155.67 191.26 157.1 190.43L188.46 172.33C189.217 171.838 189.848 171.174 190.3 170.392C190.751 169.61 191.012 168.732 191.06 167.83V156.76L184.75 150.18C184.607 149.996 184.417 149.854 184.201 149.769C183.984 149.683 183.748 149.658 183.519 149.695C183.289 149.731 183.073 149.829 182.894 149.978C182.714 150.127 182.578 150.321 182.5 150.54Z" fill="#DA002B"/>
<path d="M159.21 164.45C161.149 163.185 162.762 161.481 163.919 159.476C165.077 157.471 165.745 155.222 165.87 152.91C165.937 152.143 165.821 151.37 165.532 150.656C165.244 149.942 164.791 149.306 164.21 148.8L157.1 152.91C156.343 153.402 155.712 154.066 155.26 154.848C154.809 155.63 154.548 156.508 154.5 157.41V164.91C155.71 165.61 157.37 165.51 159.21 164.45Z" fill="#DA002B"/>
<path d="M286 134.8L153 211.54C152.243 212.032 151.612 212.696 151.16 213.478C150.709 214.26 150.448 215.138 150.4 216.04V257C150.4 258.65 151.56 259.32 153 258.5L286 181.71C286.757 181.218 287.388 180.554 287.839 179.772C288.291 178.99 288.552 178.112 288.6 177.21V136.3C288.55 134.65 287.39 134 286 134.8Z" fill="#DA002B"/>
<path opacity="0.2" d="M286 134.8L153 211.54C152.243 212.032 151.612 212.696 151.16 213.478C150.709 214.26 150.448 215.138 150.4 216.04V257C150.4 258.65 151.56 259.32 153 258.5L286 181.71C286.757 181.218 287.388 180.554 287.839 179.772C288.291 178.99 288.552 178.112 288.6 177.21V136.3C288.55 134.65 287.39 134 286 134.8Z" fill="white"/>
<path d="M201.35 190.45L225.45 176.54C226.65 175.85 227.62 176.34 227.62 177.63C227.567 178.358 227.343 179.064 226.966 179.69C226.589 180.315 226.069 180.843 225.45 181.23L201.35 195.14C200.15 195.83 199.18 195.34 199.18 194.05C199.233 193.321 199.457 192.616 199.834 191.99C200.211 191.365 200.73 190.837 201.35 190.45Z" fill="white"/>
<path d="M199.18 203.43C199.18 204.72 200.18 205.21 201.35 204.52L274.2 162.46C274.816 162.072 275.332 161.546 275.707 160.922C276.082 160.299 276.306 159.596 276.36 158.87C276.36 157.57 275.36 157.08 274.2 157.77L201.35 199.83C200.73 200.217 200.211 200.745 199.834 201.37C199.457 201.996 199.233 202.702 199.18 203.43Z" fill="white"/>
<path d="M199.18 212.81C199.18 214.1 200.18 214.59 201.35 213.9L274.2 171.84C274.816 171.452 275.332 170.926 275.707 170.302C276.082 169.678 276.306 168.976 276.36 168.25C276.36 166.95 275.36 166.46 274.2 167.15L201.35 209.21C200.73 209.597 200.211 210.125 199.834 210.75C199.457 211.376 199.233 212.081 199.18 212.81Z" fill="white"/>
<path d="M199.18 222.19C199.18 223.48 200.18 223.97 201.35 223.28L274.2 181.22C274.816 180.832 275.332 180.306 275.707 179.682C276.082 179.059 276.306 178.356 276.36 177.63C276.36 176.33 275.36 175.84 274.2 176.53L201.35 218.59C200.73 218.977 200.211 219.505 199.834 220.13C199.457 220.756 199.233 221.462 199.18 222.19Z" fill="white"/>
<path d="M157.1 213.89L188.46 195.78C189.9 194.95 191.06 195.62 191.06 197.28V228.8C191.014 229.702 190.754 230.581 190.302 231.363C189.85 232.145 189.218 232.809 188.46 233.3L157.1 251.41C155.67 252.24 154.5 251.57 154.5 249.91V218.39C154.548 217.488 154.809 216.61 155.26 215.828C155.712 215.046 156.343 214.382 157.1 213.89Z" fill="white"/>
<path d="M182.5 211.52L173.17 230.86L168.42 228.11C168.192 227.979 167.941 227.895 167.68 227.861C167.42 227.828 167.155 227.846 166.902 227.915C166.648 227.983 166.411 228.101 166.203 228.262C165.995 228.422 165.821 228.622 165.69 228.85L154.5 248.22V249.91C154.5 251.57 155.67 252.24 157.1 251.41L188.46 233.3C189.217 232.81 189.848 232.148 190.299 231.367C190.751 230.587 191.012 229.711 191.06 228.81V217.73L184.75 211.16C184.609 210.973 184.42 210.828 184.202 210.741C183.985 210.653 183.748 210.627 183.517 210.664C183.286 210.701 183.069 210.8 182.89 210.951C182.71 211.102 182.576 211.298 182.5 211.52Z" fill="#DA002B"/>
<path d="M159.21 225.42C161.149 224.157 162.762 222.455 163.919 220.452C165.076 218.448 165.745 216.2 165.87 213.89C165.937 213.123 165.821 212.35 165.532 211.636C165.244 210.922 164.791 210.286 164.21 209.78L157.1 213.89C156.343 214.382 155.712 215.046 155.26 215.828C154.809 216.61 154.548 217.488 154.5 218.39V225.89C155.71 226.58 157.37 226.48 159.21 225.42Z" fill="#DA002B"/>
<path d="M284.49 9.00002V2.63002C284.49 0.970019 283.32 0.300019 281.89 1.13002L108.36 101.32C107.602 101.812 106.972 102.476 106.52 103.258C106.068 104.04 105.808 104.918 105.76 105.82V112.2L284.49 9.00002Z" fill="#DA002B"/>
<path d="M263.2 14.36C262.64 14.7273 262.175 15.221 261.842 15.8012C261.508 16.3813 261.316 17.0318 261.28 17.7C261.28 18.93 262.14 19.43 263.2 18.81C263.762 18.4478 264.231 17.9569 264.567 17.3779C264.902 16.7989 265.095 16.1483 265.13 15.48C265.13 14.25 264.27 13.75 263.2 14.36Z" fill="#F5F5F5"/>
<path d="M270.85 10C270.289 10.3662 269.822 10.8594 269.486 11.4396C269.151 12.0199 268.957 12.6709 268.92 13.34C268.92 14.57 269.79 15.06 270.85 14.45C271.413 14.0856 271.881 13.5928 272.217 13.0122C272.552 12.4316 272.745 11.7797 272.78 11.11C272.78 9.83001 271.92 9.34001 270.85 10Z" fill="#F5F5F5"/>
<path d="M278.5 5.54002C277.937 5.90229 277.469 6.39317 277.133 6.97218C276.797 7.55118 276.604 8.2017 276.57 8.87003C276.57 10.1 277.43 10.6 278.5 9.99102C279.059 9.62269 279.524 9.12904 279.858 8.54887C280.191 7.9687 280.384 7.31826 280.42 6.65003C280.42 5.42003 279.56 4.92002 278.5 5.54002Z" fill="#F5F5F5"/>
<path d="M372.22 176.66C372.221 178.522 371.66 180.34 370.612 181.878C369.564 183.417 368.076 184.603 366.343 185.283C364.611 185.964 362.713 186.106 360.898 185.691C359.083 185.277 357.436 184.325 356.17 182.96L355.56 182.22C354.137 180.322 353.496 177.95 353.771 175.593C354.045 173.237 355.214 171.075 357.035 169.555C358.857 168.035 361.193 167.272 363.56 167.424C365.928 167.575 368.147 168.63 369.76 170.37L370.39 171.13C371.578 172.729 372.219 174.668 372.22 176.66Z" fill="#455A64"/>
<path d="M372.22 176.66C372.221 178.522 371.66 180.34 370.612 181.878C369.564 183.417 368.076 184.603 366.343 185.283C364.611 185.964 362.713 186.106 360.898 185.691C359.083 185.277 357.436 184.325 356.17 182.96L355.56 182.22L317 135.65L333.25 126.27L369.76 170.35L370.39 171.11C371.582 172.715 372.224 174.661 372.22 176.66Z" fill="#455A64"/>
<path d="M340.32 163.81C341.94 165.508 344.144 166.529 346.486 166.665C348.829 166.8 351.136 166.042 352.941 164.542C354.746 163.042 355.914 160.912 356.209 158.584C356.504 156.256 355.904 153.903 354.53 152L349.76 146.25C351.186 148.149 351.828 150.523 351.553 152.882C351.278 155.241 350.107 157.404 348.283 158.924C346.458 160.444 344.12 161.205 341.75 161.05C339.38 160.895 337.161 159.835 335.55 158.09L340.32 163.81Z" fill="#DA002B"/>
<path d="M332.63 53.06C335.541 53.384 338.355 54.2994 340.9 55.75L329.17 48.93C321.3 43.52 309.97 43.84 297.38 51.1C273.61 64.83 254.33 98.22 254.33 125.68C254.33 139.17 258.92 148.81 266.49 153.39L266.65 153.49L279.17 160.7C276.95 159.255 275.014 157.415 273.46 155.27C276.545 155.608 279.664 155.429 282.69 154.74C283.79 154.5 284.9 154.21 286.03 153.85C285.882 153.806 285.738 153.749 285.6 153.68C284.998 153.398 284.423 153.064 283.88 152.68C282.896 151.994 282.019 151.165 281.28 150.22C280.269 148.926 279.448 147.495 278.84 145.97C278.025 146.088 277.203 146.148 276.38 146.15C274.434 146.189 272.502 145.803 270.72 145.02C270.303 144.829 269.899 144.612 269.51 144.37C269.16 144.15 268.81 143.89 268.51 143.63C267.787 140.245 267.435 136.791 267.46 133.33C267.46 105.88 286.74 72.48 310.53 58.75C313.567 56.9782 316.786 55.5366 320.13 54.45C321.031 54.8182 321.879 55.3059 322.65 55.9C323.467 56.5265 324.202 57.2521 324.84 58.06C325.854 59.357 326.679 60.7913 327.29 62.3201C328.108 62.2054 328.934 62.1486 329.76 62.15C332.021 62.0893 334.258 62.6312 336.24 63.72C336.742 63.9934 337.22 64.3079 337.67 64.66C337.49 63.86 337.3 63.0701 337.07 62.3201C336.167 58.9886 334.662 55.8503 332.63 53.06Z" fill="#263238"/>
<path d="M340.9 55.7501L340.22 55.3801C337.856 54.142 335.282 53.3552 332.63 53.0601C329.784 52.7427 326.905 52.8743 324.1 53.4501C322.749 53.7062 321.413 54.0401 320.1 54.4501C316.756 55.5367 313.537 56.9782 310.5 58.7501C286.71 72.4801 267.43 105.88 267.43 133.33C267.405 136.791 267.757 140.245 268.48 143.63C268.61 144.24 268.76 144.82 268.91 145.4C269.801 148.94 271.348 152.281 273.47 155.25C274.418 156.557 275.508 157.754 276.72 158.82C277.493 159.5 278.315 160.122 279.18 160.68C287.03 165.75 298.18 165.31 310.48 158.19C334.27 144.46 353.55 111.07 353.55 83.6101C353.54 69.8801 348.71 60.2301 340.9 55.7501ZM336.2 63.7501C336.702 64.0235 337.18 64.3379 337.63 64.6901C338.384 65.3025 339.071 65.993 339.68 66.7501C342.68 70.5101 344.27 76.3601 344.27 83.6401C344.27 107.64 326.67 138.16 305.84 150.19C300.59 153.19 295.54 154.83 291.25 154.83C289.46 154.851 287.685 154.511 286.03 153.83C285.882 153.786 285.738 153.729 285.6 153.66C284.998 153.378 284.423 153.044 283.88 152.66C283.205 152.186 282.582 151.644 282.02 151.04C281.77 150.78 281.53 150.49 281.29 150.2C280.279 148.906 279.458 147.475 278.85 145.95C277.327 141.915 276.6 137.622 276.71 133.31C276.71 132.99 276.71 132.68 276.71 132.31C277.15 108.41 294.56 78.5801 315.12 66.7201C315.59 66.4501 316.07 66.1801 316.55 65.9301C319.866 64.078 323.486 62.8351 327.24 62.2601C328.058 62.1455 328.884 62.0887 329.71 62.0901C331.489 62.0747 333.254 62.4147 334.9 63.0901C335.351 63.2693 335.786 63.4868 336.2 63.7401V63.7501Z" fill="#455A64"/>
<path d="M344.27 83.63C344.27 107.63 326.67 138.15 305.84 150.18C304.576 150.915 303.275 151.583 301.94 152.18C298.608 153.787 294.977 154.68 291.28 154.8C289.49 154.821 287.715 154.481 286.06 153.8C285.912 153.755 285.768 153.699 285.63 153.63C285.028 153.348 284.453 153.014 283.91 152.63C282.926 151.944 282.049 151.115 281.31 150.17C281.05 149.82 280.78 149.48 280.54 149.09C281.01 149.09 281.54 149.16 282 149.16C286.29 149.16 291.34 147.55 296.59 144.52C317.39 132.56 335 102.08 335 78C335 71.39 333.69 66 331.2 62.21C332.957 62.3253 334.666 62.8345 336.2 63.7C336.702 63.9734 337.18 64.2878 337.63 64.64C338.384 65.2524 339.071 65.9429 339.68 66.7C342.32 70.01 343.87 74.93 344.19 81.02C344.24 81.9 344.27 82.76 344.27 83.63Z" fill="#37474F"/>
<path opacity="0.6" d="M340.25 80.8601C340.25 104.86 322.65 135.38 301.82 147.41C296.57 150.41 291.53 152.05 287.23 152.05C285.444 152.071 283.672 151.731 282.02 151.05C281.77 150.79 281.53 150.5 281.29 150.21C280.279 148.916 279.458 147.485 278.85 145.96C277.327 141.925 276.6 137.632 276.71 133.32C276.71 133 276.71 132.69 276.71 132.32C277.15 108.42 294.56 78.5901 315.12 66.7301C315.59 66.4601 316.07 66.1901 316.55 65.9401C319.866 64.0881 323.486 62.8451 327.24 62.2701C328.058 62.1555 328.884 62.0987 329.71 62.1001C331.489 62.0848 333.254 62.4247 334.9 63.1001C335.17 63.3701 335.42 63.6601 335.66 63.9501C338.66 67.7301 340.25 73.5801 340.25 80.8601Z" fill="white"/>
</svg>
