<svg width="2830" height="2830" viewBox="0 0 2830 2830" fill="none" xmlns="http://www.w3.org/2000/svg">
<path d="M2461.92 582.32H2245.09V428.56H1267.17V428.64C1267.17 428.68 1267.17 428.72 1267.17 428.76V428.56V421.027C1267.17 421.027 954.495 450.827 764.978 282.854L765.008 357.574C720.724 339.747 678.155 317.694 639.666 290.387L639.7 362.547C602.751 348.04 567.259 331.2 534.331 311.56L534.489 582.32H366.503C323.471 582.32 288.576 617.214 288.576 660.254V2054.31C288.576 2097.35 323.471 2132.24 366.503 2132.24H1129.24V2409H1034.93C1004.36 2409 979.583 2433.79 979.583 2464.36C979.583 2494.93 1004.36 2519.71 1034.93 2519.71H1793.49C1824.07 2519.71 1848.84 2494.93 1848.84 2464.36C1848.84 2433.79 1824.07 2409 1793.49 2409H1699.19V2132.24H1948.56L2055.77 2467.04C2074.8 2526.45 2138.39 2559.19 2197.8 2540.16C2257.21 2521.13 2289.95 2457.55 2270.92 2398.13L2185.77 2132.24H2461.92C2504.96 2132.24 2539.85 2097.35 2539.85 2054.31V660.254C2539.85 617.214 2504.96 582.32 2461.92 582.32Z" fill="#F1E4D8"/>
<path d="M1689.92 2145.17V2401.01C1621.48 2187.55 1139.96 2145.17 1139.96 2145.17H1689.92ZM1154.03 2337.35C1153.11 2355.88 1151.64 2374.41 1147.86 2392.95H1146.49C1142.7 2374.41 1141.24 2355.88 1140.31 2337.35C1139.31 2318.81 1141.09 2300.27 1141.69 2281.73L1143.74 2226.13L1146.49 2170.52H1147.86L1150.6 2226.13L1152.66 2281.73C1153.25 2300.27 1155.03 2318.81 1154.03 2337.35ZM1129.24 2409H1699.19V2132.24H1129.24V2409Z" fill="#222222"/>
<path d="M1506.47 2086.11H1321.96C1294.05 2086.11 1271.21 2063.27 1271.21 2035.36C1271.21 2007.45 1294.05 1984.63 1321.96 1984.63H1506.47C1534.37 1984.63 1557.21 2007.45 1557.21 2035.36C1557.21 2063.27 1534.37 2086.11 1506.47 2086.11ZM1271.21 2105.63C1075.15 2109.55 879.084 2110.56 683.02 2111.8L535.972 2112.07L462.448 2111.93L425.684 2111.83C413.456 2111.81 401.295 2111.93 388.319 2111C375.612 2109.4 362.607 2107.2 350.671 2101.08C338.735 2095.33 327.937 2086.35 320.652 2074.95C318.699 2072.19 317.388 2069.07 315.763 2066.12C314.595 2062.99 313.093 2059.95 312.288 2056.71C310.307 2050.29 309.147 2043.79 309.008 2036.88L309.16 1999.87L309.812 1852.85L314.611 676.573H315.984L320.782 1853.07L321.435 2000.15L321.607 2036.67C321.748 2042.01 322.779 2047.71 324.488 2052.96C325.16 2055.68 326.479 2058.15 327.433 2060.75C328.827 2063.13 329.879 2065.72 331.517 2067.95C337.557 2077.16 346.299 2084.35 356.419 2089.13C366.449 2094.25 378.081 2096.12 389.563 2097.48C395.5 2097.65 401.092 2098.21 407.304 2098.11L425.684 2098.05L462.448 2097.96L535.972 2097.81L683.02 2098.08C879.084 2099.33 1075.15 2100.33 1271.21 2104.25V2105.63ZM1659.77 2125.01C1659.77 2125.01 1786.96 2122.8 1940.75 2107.85L1890.91 1952.21L1889.47 1947.72H404.684C386.475 1947.72 371.711 1932.95 371.711 1914.75V668.44C371.711 650.227 386.475 635.467 404.684 635.467H534.521L534.489 582.32H366.503C323.471 582.32 288.576 617.214 288.576 660.254V2054.31C288.576 2097.35 323.471 2132.24 366.503 2132.24H1129.24H1699.19H1948.56L1946.24 2125.01C1790.88 2125.01 1659.77 2125.01 1659.77 2125.01Z" fill="#363636"/>
<path d="M2473.72 1912.96C2476.17 1714.99 2473.72 679.814 2473.72 679.814C2473.72 679.814 2477.39 625.44 2417.65 625.534C2399.69 624.867 2332.41 621.547 2245.09 617.147V635.467H2423.75C2441.95 635.467 2456.72 650.227 2456.72 668.44V1914.75C2456.72 1932.95 2441.95 1947.72 2423.75 1947.72H2126.68L2167.97 2076.64C2332.05 2045.69 2472.71 1995.21 2473.72 1912.96Z" fill="#363636"/>
<path d="M2539.85 2054.31V660.254C2539.85 617.214 2504.96 582.32 2461.92 582.32H2245.09V587.68H2444.37C2459.63 587.52 2474.89 590.547 2488.4 597.613C2507.99 607.84 2529.56 628.16 2530.56 668.213C2533 755.64 2530.56 2057.8 2530.56 2057.8C2530.56 2057.8 2527.49 2125.01 2444.4 2125.01C2419.83 2125.01 2311.84 2125.01 2183.45 2125.01L2185.77 2132.24H2461.92C2504.96 2132.24 2539.85 2097.35 2539.85 2054.31Z" fill="#363636"/>
<path d="M2456.72 1914.75V668.44C2456.72 650.227 2441.95 635.467 2423.75 635.467H2245.09V660.92H2396.17C2413.99 660.92 2428.44 675.133 2428.44 692.653V1891.68C2428.44 1909.2 2413.99 1923.4 2396.17 1923.4L2245.09 1830.77V1846.48H2094.27L2097.35 1856.12L2110.23 1896.33C2150.69 1897.04 2191.16 1897.87 2231.63 1898.93V1900.31C2191.85 1901.36 2152.09 1902.19 2112.32 1902.88L2126.68 1947.72H2423.75C2441.95 1947.72 2456.72 1932.95 2456.72 1914.75Z" fill="#96DBD1"/>
<path d="M395.604 1680.16C395.111 1709.13 394.614 1738.11 393.526 1767.08L391.875 1810.53C391.05 1825.03 390.486 1839.51 389.432 1853.99H388.062C387.007 1839.51 386.442 1825.03 385.616 1810.53L383.967 1767.08C382.878 1738.11 382.384 1709.13 381.888 1680.16C380.991 1622.21 382.518 1564.27 383.262 1506.31L385.318 1332.48L388.062 1158.63H389.432L392.175 1332.48L394.234 1506.31C394.974 1564.27 396.5 1622.21 395.604 1680.16ZM1876.03 1905.73C1846.55 1905.99 1817.05 1906.23 1787.57 1906.48C1639.56 1907.37 1491.55 1905.85 1343.53 1905.11L455.436 1900.31V1898.93L1343.53 1894.13C1491.55 1893.4 1639.56 1891.87 1787.57 1892.76C1815.75 1893 1843.92 1893.24 1872.09 1893.48L1868.33 1881.72C1864.43 1869.52 1866.05 1856.89 1871.77 1846.48H1267.17H1267.17V1846.4C1267.17 1846.36 1267.17 1846.32 1267.17 1846.28V1846.48C1098.58 1858.87 971.754 1851.67 877.911 1836.92C618.5 1813.32 535.176 1747.87 535.176 1747.87L534.607 782.08L388.748 692.653C388.748 675.133 403.19 660.92 421.003 660.92H534.536L534.522 635.467H404.684C386.475 635.467 371.711 650.227 371.711 668.44V1914.75C371.711 1932.95 386.475 1947.72 404.684 1947.72H1889.47L1885.15 1934.24L1876.03 1905.73Z" fill="#96DBD1"/>
<path d="M1793.29 2412.52C1793.29 2412.52 1843.4 2417.4 1843.4 2464.77C1843.4 2511.81 1799.41 2516.4 1799.41 2516.4L1038.93 2412.52H1793.29ZM1598.15 2504.45C1585.17 2505.51 1572.21 2506.08 1559.25 2506.91L1520.36 2508.55C1494.44 2509.64 1468.52 2510.13 1442.59 2510.63C1390.73 2511.53 1338.88 2510 1287.03 2509.25L1131.47 2507.2L1053.7 2505.83C1047.16 2505.59 1040.87 2505.89 1034.12 2505.2C1027.52 2504.51 1020.76 2502.87 1015.13 2499.03C1003.49 2491.51 998.492 2477.41 998.607 2464.44L999.976 2464.48C1000.31 2477.04 1005.71 2490.31 1016.59 2496.71C1027.47 2503.48 1040.8 2501.75 1053.7 2501.71L1131.47 2500.35L1287.03 2498.28C1338.88 2497.55 1390.73 2496.01 1442.59 2496.91C1468.52 2497.4 1494.44 2497.89 1520.36 2498.99L1559.25 2500.64C1572.21 2501.47 1585.17 2502.03 1598.15 2503.08V2504.45ZM1034.93 2409C1004.36 2409 979.583 2433.79 979.583 2464.36C979.583 2494.93 1004.36 2519.71 1034.93 2519.71H1793.49C1824.07 2519.71 1848.84 2494.93 1848.84 2464.36C1848.84 2433.79 1824.07 2409 1793.49 2409H1699.19H1129.24H1034.93Z" fill="#363636"/>
<path d="M1514.44 2082.16C1511.99 2004.76 1320.02 1987.92 1320.02 1987.92H1509.45C1509.45 1987.92 1553.04 1996.08 1553.04 2035.36C1553.04 2073.07 1514.44 2082.16 1514.44 2082.16ZM1434.77 2079.21C1414.92 2080.21 1395.08 2078.44 1375.25 2077.84L1345.51 2076.81L1330.65 2076.29C1325.61 2075.97 1320.96 2076.31 1315.51 2075.33C1310.23 2074.65 1305.05 2072.61 1300.48 2069.79C1295.91 2066.81 1292.37 2062.59 1289.8 2058.04C1284.79 2048.73 1283.71 2038.28 1284.59 2028.29L1285.96 2028.41C1285.97 2038.09 1288.09 2048.12 1293.32 2055.91C1295.98 2059.72 1299.3 2062.99 1303.31 2065.08C1307.36 2067.05 1311.72 2068.37 1316.34 2068.53C1320.71 2069.07 1326.03 2068.45 1330.88 2068.41L1345.75 2067.89L1375.45 2066.87C1395.27 2066.27 1415.07 2064.49 1434.84 2065.49C1454.63 2066.41 1474.41 2067.89 1494.25 2071.67L1494.27 2073.04C1474.48 2076.81 1454.63 2078.29 1434.77 2079.21ZM1506.47 1984.63H1321.96C1294.05 1984.63 1271.21 2007.45 1271.21 2035.36C1271.21 2063.27 1294.05 2086.11 1321.96 2086.11H1506.47C1534.37 2086.11 1557.21 2063.27 1557.21 2035.36C1557.21 2007.45 1534.37 1984.63 1506.47 1984.63Z" fill="#96DBD1"/>
<path d="M388.748 692.654L534.607 782.08L534.536 660.92H421.003C403.189 660.92 388.748 675.134 388.748 692.654Z" fill="#84C2DB"/>
<path d="M2428.44 1891.68V692.653C2428.44 675.133 2413.99 660.92 2396.17 660.92H2245.09V1830.77L2396.17 1923.4C2413.99 1923.4 2428.44 1909.2 2428.44 1891.68Z" fill="#84C2DB"/>
<path d="M1509.45 1987.92H1320.02C1320.02 1987.92 1511.99 2004.76 1514.44 2082.16C1514.44 2082.16 1553.04 2073.07 1553.04 2035.36C1553.04 1996.08 1509.45 1987.92 1509.45 1987.92Z" fill="#84C2DB"/>
<path d="M2417.65 625.533C2477.39 625.44 2473.72 679.813 2473.72 679.813C2473.72 679.813 2476.17 1714.99 2473.72 1912.96C2472.71 1995.21 2332.05 2045.69 2167.97 2076.64L2183.45 2125.01C2311.84 2125.01 2419.83 2125.01 2444.4 2125.01C2527.49 2125.01 2530.56 2057.8 2530.56 2057.8C2530.56 2057.8 2533 755.64 2530.56 668.213C2529.56 628.16 2507.99 607.84 2488.4 597.613C2474.89 590.546 2459.63 587.52 2444.37 587.68H2245.09V617.146C2332.41 621.546 2399.69 624.866 2417.65 625.533Z" fill="#131313"/>
<path d="M1946.24 2125.01L1940.75 2107.85C1786.96 2122.8 1659.77 2125.01 1659.77 2125.01C1659.77 2125.01 1790.88 2125.01 1946.24 2125.01Z" fill="#131313"/>
<path d="M1689.92 2401.01V2145.17H1139.96C1139.96 2145.17 1621.48 2187.55 1689.92 2401.01Z" fill="#191919"/>
<path d="M1799.41 2516.4C1799.41 2516.4 1843.4 2511.81 1843.4 2464.77C1843.4 2417.4 1793.29 2412.52 1793.29 2412.52H1038.93L1799.41 2516.4Z" fill="#131313"/>
<path d="M535.972 2097.81L462.448 2097.96L425.684 2098.05L407.304 2098.11C401.092 2098.21 395.5 2097.65 389.563 2097.48C378.082 2096.12 366.45 2094.25 356.419 2089.13C346.299 2084.35 337.558 2077.16 331.518 2067.95C329.879 2065.72 328.827 2063.13 327.434 2060.75C326.479 2058.15 325.16 2055.68 324.488 2052.96C322.779 2047.71 321.748 2042.01 321.607 2036.67L321.435 2000.15L320.782 1853.07L315.984 676.574H314.611L309.812 1852.85L309.16 1999.87L309.008 2036.88C309.147 2043.79 310.307 2050.29 312.288 2056.71C313.094 2059.95 314.595 2062.99 315.763 2066.12C317.388 2069.07 318.699 2072.19 320.652 2074.95C327.938 2086.35 338.735 2095.33 350.671 2101.08C362.607 2107.2 375.612 2109.4 388.319 2111C401.295 2111.93 413.456 2111.81 425.684 2111.83L462.448 2111.93L535.972 2112.07L683.02 2111.8C879.084 2110.56 1075.15 2109.55 1271.21 2105.63V2104.25C1075.15 2100.33 879.084 2099.33 683.02 2098.08L535.972 2097.81Z" fill="white"/>
<path d="M392.175 1332.48L389.432 1158.63H388.062L385.318 1332.48L383.262 1506.31C382.518 1564.27 380.991 1622.21 381.888 1680.16C382.384 1709.13 382.878 1738.11 383.967 1767.08L385.616 1810.53C386.442 1825.03 387.007 1839.51 388.062 1853.99H389.432C390.486 1839.51 391.05 1825.03 391.875 1810.53L393.526 1767.08C394.614 1738.11 395.111 1709.13 395.604 1680.16C396.5 1622.21 394.974 1564.27 394.234 1506.31L392.175 1332.48Z" fill="white"/>
<path d="M2231.63 1898.93C2191.16 1897.87 2150.69 1897.04 2110.23 1896.33L2112.32 1902.88C2152.09 1902.19 2191.85 1901.36 2231.63 1900.31V1898.93Z" fill="white"/>
<path d="M1787.57 1892.76C1639.56 1891.87 1491.55 1893.4 1343.53 1894.13L455.436 1898.93V1900.31L1343.53 1905.11C1491.55 1905.85 1639.56 1907.37 1787.57 1906.48C1817.05 1906.23 1846.55 1905.99 1876.03 1905.73L1872.09 1893.48C1843.92 1893.24 1815.75 1893 1787.57 1892.76Z" fill="white"/>
<path d="M1434.84 2065.49C1415.07 2064.49 1395.27 2066.27 1375.45 2066.87L1345.75 2067.89L1330.88 2068.41C1326.03 2068.45 1320.71 2069.07 1316.34 2068.53C1311.72 2068.37 1307.36 2067.05 1303.31 2065.08C1299.3 2062.99 1295.98 2059.72 1293.32 2055.91C1288.09 2048.12 1285.97 2038.09 1285.96 2028.41L1284.59 2028.29C1283.71 2038.28 1284.79 2048.73 1289.8 2058.04C1292.37 2062.59 1295.91 2066.81 1300.48 2069.79C1305.05 2072.61 1310.23 2074.65 1315.51 2075.33C1320.96 2076.31 1325.61 2075.97 1330.65 2076.29L1345.51 2076.81L1375.25 2077.84C1395.08 2078.44 1414.92 2080.21 1434.77 2079.21C1454.63 2078.29 1474.48 2076.81 1494.27 2073.04L1494.25 2071.67C1474.41 2067.89 1454.63 2066.41 1434.84 2065.49Z" fill="white"/>
<path d="M1150.6 2226.13L1147.86 2170.52H1146.49L1143.74 2226.13L1141.69 2281.73C1141.09 2300.27 1139.31 2318.81 1140.31 2337.35C1141.24 2355.88 1142.7 2374.41 1146.49 2392.95H1147.86C1151.64 2374.41 1153.11 2355.88 1154.03 2337.35C1155.03 2318.81 1153.25 2300.27 1152.66 2281.73L1150.6 2226.13Z" fill="white"/>
<path d="M1520.36 2498.99C1494.44 2497.89 1468.52 2497.4 1442.59 2496.91C1390.73 2496.01 1338.88 2497.55 1287.03 2498.28L1131.47 2500.35L1053.7 2501.71C1040.8 2501.75 1027.47 2503.48 1016.59 2496.71C1005.71 2490.31 1000.31 2477.04 999.976 2464.48L998.607 2464.44C998.492 2477.41 1003.49 2491.51 1015.13 2499.03C1020.76 2502.87 1027.52 2504.51 1034.12 2505.2C1040.87 2505.89 1047.15 2505.59 1053.7 2505.83L1131.47 2507.2L1287.03 2509.25C1338.88 2510 1390.73 2511.53 1442.59 2510.63C1468.52 2510.13 1494.44 2509.64 1520.36 2508.55L1559.25 2506.91C1572.21 2506.08 1585.17 2505.51 1598.15 2504.45V2503.08C1585.17 2502.03 1572.21 2501.47 1559.25 2500.64L1520.36 2498.99Z" fill="white"/>
<path d="M1590.29 1681.08H1364.52C1350.45 1681.08 1339.07 1669.68 1339.07 1655.63C1339.07 1641.57 1350.45 1630.17 1364.52 1630.17H1523.07C1507.96 1616.13 1493.84 1600.93 1480.85 1584.63H1364.52C1350.45 1584.63 1339.07 1573.23 1339.07 1559.17C1339.07 1545.12 1350.45 1533.72 1364.52 1533.72H1446.17C1431.44 1508.23 1419.12 1480.83 1409.77 1451.63C1375.44 1344.47 1386.69 1233.68 1432.56 1140.01C1432.55 1139.97 1432.52 1139.92 1432.51 1139.88H1364.52C1350.45 1139.88 1339.07 1128.48 1339.07 1114.41C1339.07 1100.36 1350.45 1088.97 1364.52 1088.97H1411.95C1403.32 1066.44 1395.03 1043.23 1387.12 1019.31H1364.52C1350.45 1019.31 1339.07 1007.91 1339.07 993.853C1339.07 979.8 1350.45 968.4 1364.52 968.4H1371.21C1364.16 944.56 1357.47 920.08 1351.19 894.88C1343.93 890.4 1339.07 882.44 1339.07 873.28C1339.07 868.413 1340.51 863.907 1342.88 860.04C1314.87 737.827 1296.03 600.187 1289.49 445.053V1816.83H1898.39L1872.99 1737.52C1772.81 1753.31 1673.05 1731.57 1590.29 1681.08Z" fill="#E6C5C3"/>
<path d="M2027.12 1783.8C2050.69 1776.25 2075.93 1789.25 2083.48 1812.83L2084.77 1816.83H2221.88C2221.88 1816.83 2134.75 1806.89 2013.69 1753.61L2023.71 1784.89L2027.12 1783.8Z" fill="#E6C5C3"/>
<path d="M1463.81 1257.23C1463.65 1258.04 1463.48 1258.85 1463.32 1259.67C1463.44 1259.04 1463.59 1258.43 1463.71 1257.8C1463.75 1257.61 1463.77 1257.41 1463.81 1257.23Z" fill="#E6C5C3"/>
<path d="M1471.57 1225.28C1471.4 1225.87 1471.24 1226.47 1471.07 1227.05C1471.12 1226.92 1471.16 1226.77 1471.2 1226.63C1471.33 1226.19 1471.44 1225.73 1471.57 1225.28Z" fill="#E6C5C3"/>
<path d="M1459.04 1290.05C1458.91 1291.36 1458.77 1292.68 1458.65 1293.99C1458.72 1293.25 1458.81 1292.53 1458.88 1291.81C1458.93 1291.23 1458.97 1290.64 1459.04 1290.05Z" fill="#E6C5C3"/>
<path d="M1267.17 1838.95V1846.28C1267.17 1846.32 1267.17 1846.36 1267.17 1846.4C1267.17 1846.43 1267.17 1846.45 1267.17 1846.48C1268.42 1787.4 1268.95 1728.32 1269.87 1669.24L1271.41 1492L1272.67 1137.52C1272.21 1019.36 1272.3 901.2 1271.39 783.04L1269.85 605.8C1268.95 546.72 1268.41 487.64 1267.17 428.56C1267.17 428.587 1267.17 428.614 1267.17 428.64C1267.17 428.68 1267.17 428.72 1267.17 428.76V447.2V1838.95Z" fill="#E6C5C3"/>
<path d="M1545.53 1091.48C1544.41 1092.75 1543.29 1094 1542.19 1095.28C1543.19 1094.13 1544.2 1092.99 1545.21 1091.85C1545.32 1091.72 1545.43 1091.6 1545.53 1091.48Z" fill="#2F2F2F"/>
<path d="M2172.31 1114.41C2172.31 1103.49 2165.4 1094.25 2155.73 1090.65C2161.45 1099.17 2166.93 1107.89 2172.07 1116.91C2172.15 1116.08 2172.31 1115.27 2172.31 1114.41Z" fill="#2F2F2F"/>
<path d="M1514.32 1132.51C1513.37 1133.97 1512.44 1135.45 1511.52 1136.92C1511.55 1136.88 1511.57 1136.84 1511.6 1136.8C1512.49 1135.36 1513.4 1133.92 1514.32 1132.51Z" fill="#2F2F2F"/>
<path d="M2087.12 1110.83C2086.17 1109.59 2085.23 1108.35 2084.27 1107.12C2085.09 1108.16 2085.88 1109.23 2086.69 1110.28C2086.83 1110.47 2086.97 1110.64 2087.12 1110.83Z" fill="#2F2F2F"/>
<path d="M2096.92 1124.29C2095.92 1122.84 2094.91 1121.41 2093.88 1119.99C2094.76 1121.21 2095.64 1122.45 2096.51 1123.69C2096.64 1123.89 2096.79 1124.09 2096.92 1124.29Z" fill="#2F2F2F"/>
<path d="M1462.17 1088.97H1364.52C1350.45 1088.97 1339.07 1100.36 1339.07 1114.41C1339.07 1128.48 1350.45 1139.88 1364.52 1139.88H1432.51H1432.64C1441.28 1122.24 1451.15 1105.24 1462.17 1088.97Z" fill="#2F2F2F"/>
<path d="M2146.85 606.693H1364.52C1350.45 606.693 1339.07 618.093 1339.07 632.147C1339.07 646.213 1350.45 657.613 1364.52 657.613H2146.85C2160.92 657.613 2172.31 646.213 2172.31 632.147C2172.31 618.093 2160.92 606.693 2146.85 606.693Z" fill="#2F2F2F"/>
<path d="M2146.85 727.267H1364.52C1350.45 727.267 1339.07 738.667 1339.07 752.72C1339.07 766.773 1350.45 778.173 1364.52 778.173H2146.85C2160.92 778.173 2172.31 766.773 2172.31 752.72C2172.31 738.667 2160.92 727.267 2146.85 727.267Z" fill="#2F2F2F"/>
<path d="M1351.19 894.88C1355.07 897.28 1359.61 898.733 1364.52 898.733H2146.85C2160.92 898.733 2172.31 887.347 2172.31 873.28C2172.31 859.227 2160.92 847.84 2146.85 847.84H1364.52C1355.33 847.84 1347.35 852.747 1342.88 860.04C1340.51 863.907 1339.07 868.413 1339.07 873.28C1339.07 882.44 1343.93 890.4 1351.19 894.88Z" fill="#2F2F2F"/>
<path d="M2146.85 1019.31C2160.92 1019.31 2172.31 1007.91 2172.31 993.853C2172.31 979.8 2160.92 968.4 2146.85 968.4H2028.83C2052.52 983.08 2074.79 1000.08 2095.24 1019.31H2146.85Z" fill="#2F2F2F"/>
<path d="M1954.04 1004.77C1953.77 1004.65 1953.52 1004.55 1953.25 1004.43C1953.32 1004.45 1953.39 1004.48 1953.44 1004.51C1953.64 1004.6 1953.84 1004.68 1954.04 1004.77Z" fill="#2F2F2F"/>
<path d="M1685.67 995.253C1685.11 995.467 1684.53 995.653 1683.97 995.867C1684.41 995.693 1684.87 995.56 1685.31 995.4C1685.43 995.347 1685.55 995.307 1685.67 995.253Z" fill="#2F2F2F"/>
<path d="M1654.89 1008.44C1653.56 1009.09 1652.19 1009.71 1650.87 1010.37C1651.55 1010.03 1652.27 1009.72 1652.95 1009.39C1653.6 1009.07 1654.24 1008.76 1654.89 1008.44Z" fill="#2F2F2F"/>
<path d="M1840.93 974.547C1840.04 974.454 1839.15 974.387 1838.25 974.307C1838.44 974.32 1838.64 974.347 1838.84 974.36C1839.53 974.427 1840.24 974.48 1840.93 974.547Z" fill="#2F2F2F"/>
<path d="M1970.16 1012.67C1969.48 1012.31 1968.81 1011.96 1968.13 1011.61C1968.49 1011.8 1968.85 1012 1969.23 1012.19C1969.53 1012.35 1969.85 1012.51 1970.16 1012.67Z" fill="#2F2F2F"/>
<path d="M1907.59 987.413C1906.81 987.186 1906.04 986.96 1905.27 986.733C1905.55 986.813 1905.83 986.907 1906.11 986.987C1906.6 987.133 1907.09 987.266 1907.59 987.413Z" fill="#2F2F2F"/>
<path d="M1670.29 1001.41C1669.25 1001.87 1668.19 1002.28 1667.16 1002.72C1667.91 1002.4 1668.69 1002.11 1669.45 1001.79C1669.73 1001.67 1670 1001.55 1670.29 1001.41Z" fill="#2F2F2F"/>
<path d="M1339.07 993.853C1339.07 1007.91 1350.45 1019.31 1364.52 1019.31H1387.12H1521.33C1541.44 1000.33 1563.6 983.267 1587.59 968.4H1371.21H1364.52C1350.45 968.4 1339.07 979.8 1339.07 993.853Z" fill="#2F2F2F"/>
<path d="M2146.85 1584.63C2160.92 1584.63 2172.31 1573.23 2172.31 1559.17C2172.31 1552.51 2169.68 1546.48 2165.48 1541.93C2156.47 1556.73 2146.59 1571.01 2135.79 1584.63H2146.85Z" fill="#2F2F2F"/>
<path d="M1364.52 1533.72C1350.45 1533.72 1339.07 1545.12 1339.07 1559.17C1339.07 1573.23 1350.45 1584.63 1364.52 1584.63H1480.85C1468.16 1568.68 1456.56 1551.68 1446.17 1533.72H1364.52Z" fill="#2F2F2F"/>
<path d="M2146.85 1681.08C2160.92 1681.08 2172.31 1669.68 2172.31 1655.63C2172.31 1641.57 2160.92 1630.17 2146.85 1630.17H2093.68C2073.32 1649.19 2050.87 1666.27 2026.57 1681.08H2146.85Z" fill="#2F2F2F"/>
<path d="M1364.52 1630.17C1350.45 1630.17 1339.07 1641.57 1339.07 1655.63C1339.07 1669.68 1350.45 1681.08 1364.52 1681.08H1590.29C1566.32 1666.45 1543.77 1649.44 1523.07 1630.17H1364.52Z" fill="#2F2F2F"/>
<path d="M1757.44 469.107L1973.13 468.8L2188.83 467.933L2188.84 466.827L1973.17 463.28L1757.51 460.293C1685.61 459.253 1613.72 457.573 1541.83 457.853C1469.93 458.413 1398.03 458.76 1326.12 461.467L1326.11 462.573C1397.99 466.173 1469.87 467.413 1541.76 468.867C1613.64 470.04 1685.55 469.253 1757.44 469.107Z" fill="white"/>
<path d="M550.458 1737.72C561.767 1742.08 572.375 1746.92 583.006 1751.79C593.66 1756.52 603.534 1762.88 614.186 1767.79C624.796 1772.73 635.582 1777.43 646.662 1781.39C657.627 1785.72 668.92 1789.11 680.248 1792.61L680.019 1793.69C668.278 1791.91 656.571 1789.6 645.008 1786.64C633.435 1783.69 622.067 1779.96 610.783 1775.92C599.552 1771.8 588.071 1767.87 577.812 1761.51C567.588 1755.19 557.734 1748.03 549.796 1738.6L550.458 1737.72ZM562.384 927.093L565.266 367.373H566.366L571.202 927.08C571.96 1020.36 573.354 1113.64 572.795 1206.93C571.956 1300.23 571.31 1393.51 568.322 1486.8H567.22C563.906 1393.52 562.934 1300.24 561.771 1206.96C560.884 1113.68 561.952 1020.39 562.384 927.093ZM534.536 660.92L534.607 782.08L535.176 1747.87C535.176 1747.87 618.5 1813.32 877.911 1836.92C699.566 1808.88 640.386 1753.59 640.386 1753.59L640.275 1526.76C623.844 1589.23 609.196 1654.21 596.895 1721.77V364.68C596.895 364.68 611.28 373.453 639.712 385.96L639.7 362.547C602.751 348.04 567.259 331.2 534.331 311.56L534.49 582.32L534.522 635.467L534.536 660.92Z" fill="#E9CBC5"/>
<path d="M596.895 364.68V1721.77C609.196 1654.21 623.844 1589.23 640.275 1526.76L639.712 385.96C611.28 373.453 596.895 364.68 596.895 364.68Z" fill="#E0B8BB"/>
<path d="M673.296 344.493V1727C696.332 1584.41 728.312 1452.88 765.394 1332.8L765.022 389.48C703.94 365.653 673.296 344.493 673.296 344.493Z" fill="#E6C5C3"/>
<path d="M567.22 1486.8H568.321C571.309 1393.51 571.956 1300.23 572.795 1206.93C573.353 1113.64 571.96 1020.36 571.201 927.08L566.365 367.373H565.265L562.384 927.093C561.952 1020.39 560.884 1113.68 561.771 1206.96C562.933 1300.24 563.905 1393.52 567.22 1486.8Z" fill="white"/>
<path d="M780.12 927.094L783.001 367.374H784.101L788.939 927.08C789.695 1020.36 791.088 1113.64 790.53 1206.93C789.691 1300.23 789.046 1393.51 786.058 1486.8H784.956C781.64 1393.52 780.67 1300.24 779.507 1206.96C778.62 1113.68 779.688 1020.39 780.12 927.094ZM798.471 324.574C798.471 324.574 966.906 464.707 1253.49 434.8C1253.49 434.8 1232.3 462.6 1198.91 516.2C1210.26 515.4 1221.73 514.347 1233.38 512.867C1241.05 511.92 1248.09 517.32 1249.08 525C1250.06 532.693 1244.62 539.72 1236.94 540.693C1217.89 543.133 1199.29 544.587 1181.1 545.347C1172.04 560.507 1162.33 577.187 1152.12 595.333C1178.22 595.44 1205.37 593.96 1233.38 590.387C1241.05 589.427 1248.09 594.84 1249.08 602.52C1250.06 610.214 1244.62 617.24 1236.94 618.213C1208 621.907 1179.98 623.547 1153.12 623.547C1147.57 623.547 1142.09 623.454 1136.64 623.32C1128.39 638.467 1119.88 654.494 1111.16 671.387C1149.4 674.014 1190.38 673.4 1233.38 667.893C1241.05 666.933 1248.09 672.36 1249.08 680.04C1250.06 687.72 1244.62 694.747 1236.94 695.733C1208 699.427 1179.98 701.067 1153.12 701.067C1133.9 701.067 1115.27 700.2 1097.26 698.693C1089.79 713.627 1082.18 729.187 1074.49 745.32C1122.77 751.414 1176.29 752.72 1233.38 745.427C1241.05 744.453 1248.09 749.88 1249.08 757.56C1250.06 765.24 1244.62 772.267 1236.94 773.254C1208 776.947 1179.98 778.574 1153.12 778.574C1120.95 778.574 1090.44 776.213 1061.8 772.28C1054.99 786.987 1048.12 802.147 1041.23 817.76C1097.71 827.827 1162.81 831.96 1233.38 822.947C1241.05 821.987 1248.09 827.387 1249.08 835.08C1250.06 842.76 1244.62 849.787 1236.94 850.774C1208 854.467 1179.98 856.094 1153.12 856.094C1108.55 856.094 1067.12 851.587 1029.55 844.6C1023.33 859.08 1017.1 873.92 1010.87 889.12C1073.86 903.374 1149.78 911.134 1233.38 900.454C1241.05 899.507 1248.09 904.907 1249.08 912.6C1250.06 920.28 1244.62 927.307 1236.94 928.294C1208 931.987 1179.98 933.613 1153.12 933.613C1096.54 933.613 1044.99 926.374 1000.04 915.96C994.346 930.267 988.662 944.827 983.003 959.734C1050.88 978.12 1137.04 990.28 1233.38 977.974C1241.05 977.014 1248.09 982.427 1249.08 990.12C1250.06 997.8 1244.62 1004.83 1236.94 1005.81C1208 1009.51 1179.98 1011.13 1153.12 1011.13C1084.81 1011.13 1023.8 1000.59 972.931 986.654C899.64 1185.37 831.846 1434.13 798.471 1727V324.574ZM1192.95 1833.33L1162.49 1834.87L1147.24 1835.63C1142.16 1835.87 1137.07 1835.63 1131.98 1835.65L1101.44 1835.27C1091.25 1835.24 1081.12 1834.04 1070.94 1833.48C1050.56 1832.56 1030.38 1829.48 1010.12 1826.99C969.846 1820.6 929.604 1812.01 891.258 1797.51C853.252 1782.6 815.746 1764.77 784.191 1738.59L784.868 1737.72C819.668 1758.45 856.898 1774.29 894.984 1787.13C933.055 1800 971.899 1810.79 1011.56 1818.28C1031.5 1821.28 1051.39 1824.89 1071.55 1826.35C1081.62 1827.17 1091.64 1828.63 1101.75 1828.95L1132.05 1830.15C1137.11 1830.29 1142.16 1830.72 1147.22 1830.67L1162.39 1830.45L1192.76 1830.04C1212.99 1829.11 1233.18 1827.28 1253.43 1825.95L1253.56 1827.04C1233.38 1829.11 1213.2 1831.67 1192.95 1833.33ZM765.394 1332.8L765.556 1746.04C765.556 1746.04 875.854 1874.87 1267.17 1838.95V447.2V428.76V428.56V421.027C1267.17 421.027 954.495 450.827 764.978 282.853L765.008 357.574L765.022 389.48L765.394 1332.8Z" fill="#E9CBC5"/>
<path d="M813.013 919.187C806.529 914.933 804.713 906.24 808.96 899.76C813.201 893.293 821.896 891.467 828.369 895.707C829.369 896.36 888.399 934.093 983.003 959.733C988.661 944.827 994.345 930.267 1000.04 915.96C888.38 890.12 817.621 844.68 813.013 841.667C806.529 837.413 804.713 828.72 808.96 822.24C813.204 815.76 821.893 813.947 828.383 818.187C829.803 819.12 900.371 864.133 1010.87 889.12C1017.1 873.92 1023.33 859.08 1029.55 844.6C900.956 820.667 818.016 767.413 813.013 764.147C806.529 759.907 804.713 751.2 808.96 744.72C813.204 738.24 821.893 736.427 828.383 740.667C829.931 741.68 913.417 794.973 1041.23 817.76C1048.12 802.147 1054.99 786.987 1061.8 772.28C914.947 752.147 818.421 690.16 813.013 686.627C806.529 682.387 804.713 673.693 808.96 667.2C813.201 660.72 821.896 658.92 828.369 663.147C829.663 663.987 927.764 726.813 1074.49 745.32C1082.18 729.187 1089.79 713.627 1097.26 698.693C930.635 684.72 818.847 612.92 813.013 609.107C806.529 604.867 804.713 596.173 808.96 589.68C813.201 583.213 821.896 581.4 828.369 585.627C829.767 586.547 944.323 659.92 1111.16 671.387C1119.88 654.493 1128.39 638.467 1136.64 623.32C948.44 618.653 819.295 535.693 813.013 531.587C806.529 527.347 804.713 518.64 808.96 512.174C813.204 505.68 821.893 503.867 828.383 508.12C830.343 509.387 963.685 594.56 1152.12 595.333C1162.33 577.187 1172.04 560.507 1181.1 545.347C1171.66 545.747 1162.3 546.013 1153.12 546.013C956.005 546.013 819.476 458.307 813.013 454.067C806.529 449.827 804.713 441.12 808.96 434.653C813.204 428.173 821.893 426.347 828.383 430.6C830.501 431.973 986.137 531.307 1198.91 516.2C1232.3 462.6 1253.49 434.8 1253.49 434.8C966.905 464.707 798.471 324.574 798.471 324.574V1727C831.845 1434.13 899.64 1185.37 972.931 986.653C877.019 960.36 817.237 921.947 813.013 919.187Z" fill="#E0B8BB"/>
<path d="M655.317 1486.8H656.417C659.407 1393.51 660.053 1300.23 660.891 1206.93C661.449 1113.64 660.056 1020.36 659.3 927.08L654.464 367.373H653.361L650.48 927.093C650.049 1020.39 648.98 1113.68 649.867 1206.96C651.029 1300.24 652.001 1393.52 655.317 1486.8Z" fill="white"/>
<path d="M784.956 1486.8H786.058C789.046 1393.51 789.691 1300.23 790.53 1206.93C791.088 1113.64 789.695 1020.36 788.939 927.08L784.102 367.373H783.002L780.12 927.093C779.688 1020.39 778.62 1113.68 779.507 1206.96C780.67 1300.24 781.64 1393.52 784.956 1486.8Z" fill="white"/>
<path d="M577.812 1761.51C588.071 1767.87 599.552 1771.8 610.783 1775.92C622.067 1779.96 633.435 1783.69 645.008 1786.64C656.571 1789.6 668.278 1791.91 680.019 1793.69L680.248 1792.61C668.92 1789.11 657.627 1785.72 646.662 1781.39C635.582 1777.43 624.796 1772.73 614.186 1767.79C603.534 1762.88 593.66 1756.52 583.006 1751.79C572.375 1746.92 561.767 1742.08 550.458 1737.72L549.796 1738.6C557.734 1748.03 567.588 1755.19 577.812 1761.51Z" fill="white"/>
<path d="M1192.76 1830.04L1162.39 1830.45L1147.22 1830.67C1142.16 1830.72 1137.11 1830.29 1132.05 1830.15L1101.75 1828.95C1091.64 1828.63 1081.62 1827.17 1071.55 1826.35C1051.39 1824.89 1031.5 1821.28 1011.56 1818.28C971.899 1810.79 933.055 1800 894.984 1787.13C856.898 1774.29 819.668 1758.45 784.868 1737.72L784.191 1738.59C815.746 1764.77 853.252 1782.6 891.258 1797.51C929.604 1812.01 969.846 1820.6 1010.12 1826.99C1030.38 1829.48 1050.56 1832.56 1070.94 1833.48C1081.12 1834.04 1091.25 1835.24 1101.44 1835.27L1131.98 1835.65C1137.07 1835.63 1142.16 1835.87 1147.24 1835.63L1162.49 1834.87L1192.95 1833.33C1213.2 1831.67 1233.38 1829.11 1253.56 1827.04L1253.43 1825.95C1233.18 1827.28 1212.99 1829.11 1192.76 1830.04Z" fill="white"/>
<path d="M654.58 1746.95C668.9 1759.89 685.232 1770.16 702.125 1779.24C719.051 1788.35 737.388 1794.43 755.597 1800.32C773.805 1806.32 792.567 1810.56 811.396 1813.84C830.303 1816.92 849.475 1817.73 868.476 1817.39L868.473 1816.28C849.544 1815.16 830.769 1812.89 812.439 1808.43C794.113 1804.12 776.001 1798.91 758.501 1792C740.916 1785.29 724.167 1776.77 706.941 1769.32L655.2 1746.03L654.58 1746.95Z" fill="white"/>
<path d="M828.383 430.6C821.894 426.347 813.204 428.174 808.96 434.654C804.714 441.12 806.53 449.827 813.014 454.067C819.476 458.307 956.006 546.014 1153.12 546.014C1162.3 546.014 1171.66 545.747 1181.1 545.347C1199.29 544.587 1217.89 543.134 1236.94 540.694C1244.62 539.72 1250.06 532.694 1249.08 525C1248.1 517.32 1241.05 511.92 1233.38 512.867C1221.73 514.347 1210.26 515.4 1198.91 516.2C986.138 531.307 830.502 431.974 828.383 430.6Z" fill="#2F2F2F"/>
<path d="M808.96 512.174C804.714 518.64 806.53 527.347 813.014 531.587C819.295 535.694 948.44 618.654 1136.64 623.32C1142.09 623.454 1147.57 623.547 1153.12 623.547C1179.98 623.547 1208 621.907 1236.94 618.214C1244.62 617.24 1250.06 610.214 1249.08 602.52C1248.1 594.84 1241.05 589.427 1233.38 590.387C1205.37 593.96 1178.22 595.44 1152.12 595.334C963.686 594.56 830.343 509.387 828.383 508.12C821.894 503.867 813.204 505.68 808.96 512.174Z" fill="#2F2F2F"/>
<path d="M808.96 589.68C804.714 596.173 806.53 604.867 813.014 609.107C818.847 612.92 930.635 684.72 1097.26 698.693C1115.27 700.2 1133.9 701.066 1153.12 701.066C1179.98 701.066 1208 699.426 1236.94 695.733C1244.62 694.746 1250.06 687.72 1249.08 680.04C1248.1 672.36 1241.05 666.933 1233.38 667.893C1190.38 673.4 1149.4 674.013 1111.16 671.386C944.323 659.92 829.767 586.546 828.37 585.626C821.896 581.4 813.202 583.213 808.96 589.68Z" fill="#2F2F2F"/>
<path d="M808.96 667.2C804.714 673.693 806.53 682.387 813.014 686.627C818.422 690.16 914.947 752.147 1061.8 772.28C1090.44 776.213 1120.95 778.573 1153.12 778.573C1179.98 778.573 1208 776.947 1236.94 773.253C1244.62 772.267 1250.06 765.24 1249.08 757.56C1248.1 749.88 1241.05 744.453 1233.38 745.427C1176.29 752.72 1122.77 751.413 1074.49 745.32C927.764 726.813 829.663 663.987 828.37 663.147C821.896 658.92 813.202 660.72 808.96 667.2Z" fill="#2F2F2F"/>
<path d="M808.96 744.72C804.714 751.2 806.53 759.907 813.014 764.147C818.016 767.414 900.956 820.667 1029.55 844.6C1067.12 851.587 1108.55 856.094 1153.12 856.094C1179.98 856.094 1208 854.467 1236.94 850.774C1244.62 849.787 1250.06 842.76 1249.08 835.08C1248.1 827.387 1241.05 821.987 1233.38 822.947C1162.81 831.96 1097.71 827.827 1041.23 817.76C913.418 794.974 829.931 741.68 828.383 740.667C821.894 736.427 813.204 738.24 808.96 744.72Z" fill="#2F2F2F"/>
<path d="M808.96 822.24C804.714 828.72 806.53 837.413 813.014 841.667C817.622 844.68 888.38 890.12 1000.04 915.96C1044.99 926.373 1096.54 933.613 1153.12 933.613C1179.98 933.613 1208 931.987 1236.94 928.293C1244.62 927.307 1250.06 920.28 1249.08 912.6C1248.1 904.907 1241.05 899.507 1233.38 900.453C1149.78 911.133 1073.86 903.373 1010.87 889.12C900.371 864.133 829.803 819.12 828.383 818.187C821.894 813.947 813.204 815.76 808.96 822.24Z" fill="#2F2F2F"/>
<path d="M808.96 899.76C804.714 906.24 806.53 914.933 813.014 919.187C817.238 921.947 877.019 960.36 972.931 986.653C1023.8 1000.59 1084.81 1011.13 1153.12 1011.13C1179.98 1011.13 1208 1009.51 1236.94 1005.81C1244.62 1004.83 1250.06 997.8 1249.08 990.12C1248.1 982.427 1241.05 977.013 1233.38 977.973C1137.04 990.28 1050.88 978.12 983.003 959.733C888.399 934.093 829.37 896.36 828.37 895.707C821.896 891.467 813.202 893.293 808.96 899.76Z" fill="#2F2F2F"/>
<path d="M1884.35 1743.23C1951.57 1730.17 1992.47 1708.6 1992.47 1708.6L2015.67 1781.05C1990.37 1732.27 1884.35 1743.23 1884.35 1743.23ZM1906.08 1809.49L1905.15 1809.79C1901.2 1806.21 1898.8 1802.15 1896.77 1797.95C1894.69 1793.77 1894.49 1789 1893.48 1784.48C1891.55 1775.41 1889.67 1766.33 1888.28 1757.09L1889.2 1756.8C1893.43 1765.12 1897.19 1773.61 1900.88 1782.12C1902.68 1786.37 1905.29 1790.39 1906.01 1794.99C1906.8 1799.59 1907.21 1804.28 1906.08 1809.49ZM2013.69 1753.61L1995.93 1698.15C1988.81 1701.71 1981.55 1705.05 1974.16 1708.24C1985 1702.49 2274.45 1546.01 2209.23 1242.21C2145.23 944.12 1858.73 873.373 1685.48 936.107C1685.48 936.107 2074.05 882.48 2170.31 1251.05C2170.31 1251.05 2233.55 1501.23 1973.91 1708.33C1961.61 1713.61 1948.97 1718.4 1935.97 1722.57C1915.07 1729.27 1894.01 1734.2 1872.99 1737.52L1898.39 1816.83L1900.76 1824.27L2023.71 1784.89L2013.69 1753.61Z" fill="#2D2D2D"/>
<path d="M1525.83 1115.91C1526.96 1114.35 1528.12 1112.8 1529.29 1111.27C1530.29 1109.95 1531.28 1108.61 1532.31 1107.31C1533.07 1106.32 1533.88 1105.37 1534.65 1104.4C1534.79 1104.23 1534.93 1104.07 1535.07 1103.89C1536.25 1102.41 1537.44 1100.95 1538.64 1099.49C1539.81 1098.08 1541 1096.68 1542.19 1095.28C1543.29 1094 1544.41 1092.75 1545.53 1091.48C1546.27 1090.65 1546.95 1089.79 1547.68 1088.97C1547.95 1088.68 1548.23 1088.39 1548.49 1088.09C1549.91 1086.55 1551.36 1085.03 1552.8 1083.49C1553.84 1082.4 1554.84 1081.29 1555.89 1080.2C1556.57 1079.49 1557.24 1078.79 1557.93 1078.09C1559.56 1076.44 1561.23 1074.83 1562.89 1073.2C1564.25 1071.87 1565.57 1070.49 1566.96 1069.19C1567.04 1069.11 1567.12 1069.04 1567.2 1068.96C1567.37 1068.8 1567.57 1068.63 1567.75 1068.47C1569.47 1066.85 1571.23 1065.28 1572.97 1063.71C1574.63 1062.2 1576.28 1060.68 1577.97 1059.2C1578.4 1058.81 1578.84 1058.44 1579.27 1058.07C1580.04 1057.4 1580.85 1056.76 1581.63 1056.09C1582.21 1055.6 1582.81 1055.12 1583.4 1054.63C1585.13 1053.19 1586.84 1051.72 1588.6 1050.31C1589.53 1049.56 1590.49 1048.83 1591.44 1048.08C1592.71 1047.08 1594 1046.11 1595.29 1045.12C1596.73 1044.03 1598.15 1042.89 1599.61 1041.83C1601.15 1040.69 1602.72 1039.6 1604.27 1038.48C1605.6 1037.53 1606.92 1036.59 1608.25 1035.65C1609.17 1035.01 1610.07 1034.37 1610.99 1033.75C1612.99 1032.4 1615.03 1031.11 1617.04 1029.79C1617.72 1029.35 1618.4 1028.89 1619.08 1028.45C1619.91 1027.93 1620.71 1027.37 1621.55 1026.85C1621.95 1026.6 1622.35 1026.35 1622.75 1026.09C1624.8 1024.83 1626.91 1023.61 1628.99 1022.37C1630.71 1021.36 1632.39 1020.29 1634.12 1019.31C1634.33 1019.19 1634.56 1019.08 1634.77 1018.96C1635.16 1018.73 1635.53 1018.51 1635.92 1018.29C1636.49 1017.97 1637.08 1017.68 1637.65 1017.36C1641.47 1015.24 1645.32 1013.17 1649.24 1011.19C1649.79 1010.92 1650.32 1010.64 1650.87 1010.37C1652.19 1009.71 1653.56 1009.09 1654.89 1008.44C1658.01 1006.93 1661.15 1005.45 1664.33 1004.03C1665.28 1003.6 1666.2 1003.15 1667.16 1002.72C1668.19 1002.28 1669.25 1001.87 1670.29 1001.41C1673.65 999.987 1677.05 998.613 1680.47 997.28C1681.65 996.813 1682.79 996.307 1683.97 995.867C1684.53 995.653 1685.11 995.467 1685.67 995.253C1690.83 993.333 1696.03 991.493 1701.32 989.8C1706.53 988.133 1711.77 986.627 1717 985.213C1718.63 984.773 1720.24 984.387 1721.85 983.973C1725.6 983.013 1729.35 982.12 1733.11 981.293C1734.83 980.907 1736.55 980.533 1738.27 980.173C1742.43 979.32 1746.6 978.547 1750.77 977.853C1751.88 977.667 1753 977.44 1754.12 977.267C1759.32 976.44 1764.53 975.76 1769.73 975.173C1771.16 975.013 1772.6 974.907 1774.03 974.76C1777.91 974.373 1781.77 974.04 1785.65 973.787C1787.4 973.68 1789.15 973.573 1790.89 973.493C1794.72 973.293 1798.55 973.173 1802.37 973.107C1803.83 973.08 1805.29 973.027 1806.75 973.027C1807.31 973.027 1807.87 972.987 1808.41 972.987C1812.71 972.987 1817 973.093 1821.27 973.253C1821.69 973.267 1822.11 973.267 1822.53 973.28C1823.03 973.307 1823.52 973.347 1824.01 973.373C1824.47 973.387 1824.91 973.427 1825.36 973.453C1828.29 973.6 1831.21 973.76 1834.13 973.973C1835.51 974.08 1836.88 974.187 1838.25 974.307C1839.15 974.387 1840.04 974.453 1840.93 974.547C1842.99 974.733 1845.04 974.96 1847.09 975.187C1848.64 975.36 1850.19 975.533 1851.73 975.733C1853.12 975.907 1854.49 976.067 1855.87 976.253C1856.81 976.387 1857.76 976.547 1858.69 976.68C1859.29 976.773 1859.88 976.853 1860.47 976.947C1861.77 977.147 1863.09 977.32 1864.4 977.533C1866.77 977.92 1869.13 978.36 1871.49 978.8C1872.55 978.987 1873.6 979.173 1874.65 979.373C1875.39 979.52 1876.13 979.627 1876.87 979.773C1877.12 979.827 1877.37 979.893 1877.63 979.947C1881.51 980.733 1885.37 981.587 1889.23 982.507C1889.45 982.56 1889.69 982.6 1889.93 982.653C1889.99 982.667 1890.05 982.68 1890.12 982.693C1891.17 982.96 1892.23 983.253 1893.29 983.52C1896.04 984.213 1898.79 984.92 1901.52 985.68C1902.77 986.027 1904.03 986.373 1905.27 986.733C1906.04 986.96 1906.81 987.187 1907.59 987.413C1909.68 988.027 1911.76 988.68 1913.84 989.333C1915.35 989.813 1916.85 990.28 1918.35 990.787C1919.52 991.173 1920.69 991.547 1921.87 991.96C1922.64 992.213 1923.4 992.507 1924.17 992.773C1924.93 993.04 1925.69 993.32 1926.47 993.587C1927.75 994.053 1929.03 994.493 1930.31 994.96C1932.35 995.72 1934.39 996.533 1936.41 997.333C1937.45 997.747 1938.49 998.133 1939.52 998.547C1940.32 998.88 1941.12 999.173 1941.92 999.493C1942.48 999.733 1943.03 999.987 1943.57 1000.21C1946.83 1001.57 1950.05 1002.97 1953.25 1004.43C1953.52 1004.55 1953.77 1004.65 1954.04 1004.77C1955.19 1005.29 1956.32 1005.87 1957.47 1006.4C1959.93 1007.56 1962.4 1008.73 1964.84 1009.96C1965.95 1010.51 1967.04 1011.05 1968.13 1011.61C1968.81 1011.96 1969.48 1012.31 1970.16 1012.67C1972.19 1013.72 1974.19 1014.79 1976.19 1015.88C1977.6 1016.65 1979.03 1017.43 1980.44 1018.21C1981.09 1018.59 1981.76 1018.93 1982.41 1019.31C1982.68 1019.45 1982.93 1019.63 1983.21 1019.77C1984.2 1020.35 1985.17 1020.96 1986.16 1021.55H1986.17C1988.31 1022.8 1990.43 1024.05 1992.53 1025.35C1993.88 1026.19 1995.21 1027.03 1996.55 1027.87C1997.59 1028.53 1998.61 1029.19 1999.64 1029.85C2001.13 1030.83 2002.63 1031.8 2004.11 1032.8C2005.87 1033.99 2007.61 1035.2 2009.36 1036.41C2009.64 1036.61 2009.92 1036.8 2010.2 1037C2010.96 1037.53 2011.75 1038.04 2012.51 1038.59C2013.47 1039.28 2014.41 1039.99 2015.37 1040.69C2017.11 1041.95 2018.81 1043.24 2020.51 1044.53C2022.03 1045.68 2023.56 1046.81 2025.07 1047.99C2025.63 1048.43 2026.17 1048.89 2026.73 1049.33C2028.29 1050.56 2029.83 1051.83 2031.36 1053.09C2033.25 1054.64 2035.13 1056.21 2036.99 1057.8C2037.2 1057.97 2037.4 1058.15 2037.6 1058.32C2037.99 1058.65 2038.4 1058.96 2038.79 1059.31C2039.83 1060.21 2040.84 1061.16 2041.87 1062.08C2043.69 1063.71 2045.51 1065.35 2047.31 1067.01C2048.35 1067.97 2049.39 1068.92 2050.41 1069.91C2051.17 1070.63 2051.91 1071.36 2052.65 1072.08C2054.2 1073.59 2055.75 1075.11 2057.27 1076.63C2058.72 1078.09 2060.16 1079.56 2061.59 1081.04C2062.29 1081.79 2063.01 1082.51 2063.71 1083.24C2064.77 1084.37 2065.81 1085.52 2066.87 1086.67C2067.57 1087.44 2068.32 1088.19 2069.03 1088.97C2069.71 1089.72 2070.35 1090.52 2071.03 1091.28C2072.11 1092.51 2073.21 1093.71 2074.28 1094.95C2074.89 1095.67 2075.48 1096.4 2076.09 1097.12C2076.4 1097.49 2076.71 1097.88 2077.03 1098.25C2078.28 1099.75 2079.53 1101.24 2080.77 1102.75C2081.95 1104.2 2083.12 1105.65 2084.27 1107.12C2085.23 1108.35 2086.17 1109.59 2087.12 1110.83C2088.08 1112.08 2089.05 1113.32 2090 1114.6C2091.32 1116.37 2092.6 1118.17 2093.88 1119.99C2094.91 1121.41 2095.92 1122.84 2096.92 1124.29C2097.52 1125.15 2098.13 1125.99 2098.72 1126.85C2100.32 1129.2 2101.84 1131.61 2103.39 1134.01C2104.2 1135.28 2105.04 1136.52 2105.84 1137.81C2106.2 1138.39 2106.59 1138.96 2106.95 1139.55C2107.01 1139.65 2107.08 1139.76 2107.16 1139.88C2107.37 1140.23 2107.57 1140.61 2107.79 1140.97C2109.92 1144.47 2112.01 1147.99 2114.04 1151.57C2114.35 1152.13 2114.64 1152.72 2114.95 1153.28C2115.43 1154.13 2115.87 1154.99 2116.33 1155.84C2117.08 1157.21 2117.83 1158.6 2118.56 1159.99C2119.57 1161.92 2120.59 1163.85 2121.57 1165.8C2122.36 1167.36 2123.11 1168.95 2123.87 1170.53C2124.88 1172.61 2125.93 1174.67 2126.91 1176.77C2127.03 1177.05 2127.15 1177.35 2127.27 1177.63C2127.72 1178.61 2128.15 1179.64 2128.59 1180.64C2129.37 1182.4 2130.15 1184.16 2130.91 1185.93C2132.08 1188.71 2133.23 1191.49 2134.35 1194.31C2134.84 1195.56 2135.35 1196.81 2135.84 1198.08C2136.25 1199.16 2136.67 1200.23 2137.07 1201.32C2138.99 1206.48 2140.83 1211.68 2142.52 1216.97C2144.2 1222.2 2145.71 1227.44 2147.12 1232.68C2147.56 1234.29 2147.95 1235.91 2148.36 1237.52C2149.32 1241.28 2150.21 1245.03 2151.05 1248.8C2151.43 1250.51 2151.81 1252.23 2152.16 1253.95C2153.01 1258.11 2153.77 1262.28 2154.48 1266.45C2154.67 1267.56 2154.89 1268.68 2155.07 1269.8C2155.89 1275.04 2156.59 1280.29 2157.17 1285.53C2157.32 1286.85 2157.43 1288.19 2157.55 1289.51C2157.95 1293.48 2158.29 1297.45 2158.55 1301.41C2158.65 1303.15 2158.76 1304.88 2158.84 1306.61C2159.03 1310.41 2159.16 1314.21 2159.21 1318C2159.24 1319.51 2159.29 1321.03 2159.31 1322.53C2159.31 1323.15 2159.33 1323.77 2159.33 1324.4C2159.33 1328.69 2159.23 1332.97 2159.07 1337.25C2159.05 1337.67 2159.05 1338.08 2159.04 1338.51C2158.81 1343.79 2158.45 1349.04 2158 1354.29C2157.85 1355.91 2157.65 1357.52 2157.49 1359.13C2157.13 1362.79 2156.72 1366.43 2156.24 1370.05C2155.99 1371.95 2155.71 1373.84 2155.43 1375.72C2154.91 1379.13 2154.35 1382.53 2153.75 1385.92C2153.41 1387.77 2153.07 1389.63 2152.71 1391.48C2152 1395.09 2151.21 1398.69 2150.39 1402.28C2150.04 1403.8 2149.72 1405.33 2149.35 1406.85C2148.11 1411.93 2146.77 1417 2145.31 1422.01C2145.23 1422.31 2145.12 1422.59 2145.04 1422.88C2143.65 1427.59 2142.16 1432.27 2140.57 1436.89C2140.04 1438.45 2139.47 1440 2138.92 1441.55C2137.71 1444.93 2136.47 1448.31 2135.16 1451.65C2134.48 1453.39 2133.77 1455.12 2133.07 1456.84C2131.76 1460.04 2130.4 1463.21 2129 1466.36C2128.25 1468.04 2127.52 1469.71 2126.75 1471.37C2125.16 1474.81 2123.49 1478.21 2121.79 1481.59C2121.15 1482.87 2120.55 1484.16 2119.88 1485.41C2117.49 1490.04 2115.01 1494.61 2112.41 1499.12C2112 1499.84 2111.55 1500.55 2111.13 1501.27C2108.93 1505.03 2106.67 1508.75 2104.32 1512.43C2103.39 1513.91 2102.4 1515.36 2101.44 1516.83C2099.53 1519.73 2097.6 1522.61 2095.6 1525.47C2094.49 1527.05 2093.36 1528.63 2092.23 1530.19C2091.39 1531.36 2090.57 1532.56 2089.71 1533.72C2088.79 1534.96 2087.79 1536.15 2086.84 1537.39C2085.07 1539.71 2083.28 1542 2081.44 1544.28C2079.72 1546.43 2077.96 1548.53 2076.19 1550.64C2074.29 1552.88 2072.37 1555.11 2070.43 1557.31C2068.59 1559.37 2066.73 1561.4 2064.85 1563.43C2062.84 1565.57 2060.83 1567.69 2058.76 1569.8C2056.83 1571.77 2054.85 1573.73 2052.87 1575.67C2050.76 1577.72 2048.64 1579.73 2046.48 1581.73C2045.45 1582.68 2044.47 1583.68 2043.43 1584.63C2042.51 1585.47 2041.51 1586.23 2040.57 1587.05C2037.83 1589.49 2035.01 1591.88 2032.17 1594.24C2030.27 1595.81 2028.36 1597.4 2026.43 1598.93C2023.41 1601.32 2020.33 1603.64 2017.24 1605.93C2015.37 1607.31 2013.55 1608.72 2011.64 1610.07C2008.05 1612.61 2004.37 1615.07 2000.67 1617.49C1999.17 1618.45 1997.73 1619.48 1996.24 1620.43C1990.99 1623.75 1985.64 1626.96 1980.19 1630.01C1980.09 1630.07 1980 1630.12 1979.91 1630.17C1977.23 1631.68 1974.47 1633.05 1971.73 1634.48C1969.41 1635.71 1967.12 1636.99 1964.76 1638.16C1961.71 1639.67 1958.57 1641.05 1955.45 1642.49C1953.23 1643.52 1951.05 1644.6 1948.8 1645.59C1945.17 1647.16 1941.45 1648.6 1937.75 1650.07C1935.93 1650.79 1934.16 1651.57 1932.33 1652.27C1926.76 1654.37 1921.09 1656.35 1915.36 1658.19C1910.13 1659.85 1904.89 1661.36 1899.65 1662.77C1898.05 1663.21 1896.44 1663.6 1894.83 1664.01C1891.08 1664.97 1887.32 1665.87 1883.56 1666.71C1881.84 1667.08 1880.13 1667.47 1878.41 1667.81C1874.21 1668.67 1870.03 1669.44 1865.83 1670.15C1864.75 1670.33 1863.65 1670.55 1862.57 1670.72C1857.35 1671.55 1852.12 1672.24 1846.89 1672.81C1845.52 1672.97 1844.13 1673.08 1842.75 1673.21C1838.81 1673.61 1834.89 1673.95 1830.97 1674.2C1829.25 1674.31 1827.53 1674.41 1825.81 1674.49C1821.96 1674.69 1818.11 1674.81 1814.25 1674.88C1812.81 1674.91 1811.37 1674.96 1809.93 1674.96C1809.37 1674.97 1808.81 1675 1808.25 1675C1807.01 1675 1805.8 1674.89 1804.56 1674.88C1799.28 1674.83 1794.01 1674.65 1788.76 1674.36C1786.6 1674.24 1784.45 1674.09 1782.29 1673.93C1777.12 1673.55 1771.97 1673.04 1766.84 1672.43C1765.17 1672.23 1763.48 1672.07 1761.81 1671.84C1755.13 1670.95 1748.49 1669.87 1741.89 1668.59C1740.53 1668.33 1739.19 1668 1737.84 1667.72C1732.55 1666.63 1727.28 1665.43 1722.05 1664.09C1720 1663.57 1717.97 1663.03 1715.93 1662.47C1711.08 1661.13 1706.25 1659.69 1701.47 1658.16C1699.76 1657.61 1698.04 1657.09 1696.35 1656.52C1690.01 1654.39 1683.73 1652.09 1677.55 1649.6C1676.52 1649.19 1675.51 1648.72 1674.49 1648.29C1669.31 1646.16 1664.19 1643.89 1659.11 1641.51C1657.2 1640.61 1655.31 1639.68 1653.41 1638.75C1649.04 1636.59 1644.71 1634.33 1640.41 1632C1639.25 1631.37 1638.05 1630.83 1636.91 1630.17C1636.28 1629.84 1635.69 1629.44 1635.08 1629.09C1631.37 1626.99 1627.73 1624.79 1624.11 1622.55C1622.52 1621.57 1620.91 1620.64 1619.33 1619.64C1614.23 1616.39 1609.2 1613 1604.25 1609.47C1603.16 1608.68 1602.09 1607.84 1601 1607.04C1597.16 1604.23 1593.33 1601.36 1589.6 1598.39C1587.85 1597 1586.17 1595.55 1584.45 1594.13C1581.43 1591.63 1578.41 1589.09 1575.47 1586.48C1574.75 1585.85 1574 1585.27 1573.28 1584.63C1571.96 1583.44 1570.71 1582.17 1569.4 1580.96C1567.33 1579.03 1565.25 1577.09 1563.23 1575.11C1561.17 1573.12 1559.17 1571.08 1557.17 1569.04C1555.19 1567 1553.21 1564.97 1551.28 1562.89C1549.32 1560.79 1547.41 1558.64 1545.51 1556.49C1543.61 1554.36 1541.73 1552.21 1539.89 1550.03C1538.05 1547.84 1536.24 1545.61 1534.44 1543.36C1532.64 1541.12 1530.85 1538.85 1529.11 1536.56C1528.37 1535.6 1527.6 1534.69 1526.88 1533.72C1525.6 1532.01 1524.39 1530.23 1523.15 1528.49C1522.09 1527.03 1521.04 1525.59 1520.01 1524.11C1517.59 1520.61 1515.24 1517.04 1512.93 1513.44C1512.35 1512.53 1511.73 1511.65 1511.16 1510.75C1508.33 1506.23 1505.6 1501.64 1502.97 1496.97C1502.24 1495.68 1501.56 1494.35 1500.84 1493.05C1498.96 1489.61 1497.11 1486.16 1495.33 1482.65C1494.47 1480.91 1493.61 1479.15 1492.76 1477.39C1491.21 1474.19 1489.69 1470.95 1488.23 1467.68C1487.41 1465.85 1486.6 1464.01 1485.81 1462.16C1484.33 1458.71 1482.92 1455.2 1481.55 1451.68C1480.91 1450.03 1480.24 1448.4 1479.63 1446.75C1477.69 1441.57 1475.85 1436.33 1474.15 1431.01C1472.47 1425.79 1470.96 1420.55 1469.55 1415.29C1469.11 1413.69 1468.72 1412.09 1468.31 1410.48C1467.35 1406.72 1466.45 1402.96 1465.61 1399.2C1465.24 1397.48 1464.87 1395.76 1464.51 1394.04C1463.65 1389.88 1462.89 1385.72 1462.19 1381.55C1462 1380.43 1461.77 1379.31 1461.6 1378.19C1460.77 1372.95 1460.08 1367.71 1459.49 1362.47C1459.35 1361.13 1459.25 1359.81 1459.12 1358.48C1458.72 1354.51 1458.39 1350.53 1458.12 1346.56C1458.01 1344.84 1457.92 1343.12 1457.83 1341.39C1457.64 1337.59 1457.52 1333.77 1457.45 1329.99C1457.43 1328.48 1457.37 1326.96 1457.37 1325.47C1457.36 1324.84 1457.33 1324.21 1457.33 1323.59C1457.33 1319.15 1457.44 1314.71 1457.61 1310.28C1457.61 1310.07 1457.61 1309.87 1457.63 1309.67C1457.63 1309.51 1457.65 1309.36 1457.65 1309.21C1457.71 1308.11 1457.8 1307.01 1457.85 1305.91C1458.01 1302.95 1458.16 1299.97 1458.39 1297.03C1458.47 1296.01 1458.56 1295 1458.65 1293.99C1458.77 1292.68 1458.91 1291.36 1459.04 1290.05C1459.24 1287.99 1459.44 1285.93 1459.67 1283.87C1459.89 1282.01 1460.15 1280.16 1460.39 1278.31C1460.39 1278.28 1460.39 1278.25 1460.4 1278.23C1460.56 1277.03 1460.69 1275.8 1460.87 1274.6C1461.04 1273.32 1461.25 1272.05 1461.44 1270.79C1461.73 1268.89 1462.05 1267.01 1462.37 1265.13C1462.69 1263.31 1462.99 1261.48 1463.32 1259.67C1463.48 1258.85 1463.65 1258.04 1463.81 1257.23C1464.13 1255.52 1464.49 1253.83 1464.85 1252.12C1465.36 1249.71 1465.89 1247.31 1466.45 1244.89C1466.55 1244.49 1466.63 1244.08 1466.72 1243.68C1466.85 1243.13 1466.96 1242.57 1467.09 1242.03C1467.31 1241.12 1467.56 1240.21 1467.8 1239.29C1468.4 1236.89 1469.04 1234.49 1469.68 1232.09C1470.15 1230.41 1470.59 1228.73 1471.07 1227.05C1471.24 1226.47 1471.4 1225.87 1471.57 1225.28C1471.67 1225 1471.73 1224.71 1471.81 1224.43C1472.03 1223.72 1472.29 1223.05 1472.51 1222.35C1473.55 1218.95 1474.61 1215.55 1475.75 1212.17C1476.33 1210.45 1476.93 1208.73 1477.55 1207.03C1478.08 1205.52 1478.57 1203.99 1479.12 1202.48C1479.19 1202.31 1479.27 1202.15 1479.33 1201.96C1479.93 1200.35 1480.59 1198.76 1481.21 1197.16C1481.84 1195.55 1482.45 1193.93 1483.11 1192.32C1484.39 1189.15 1485.75 1185.99 1487.13 1182.85C1487.56 1181.88 1487.96 1180.89 1488.4 1179.92C1488.67 1179.32 1488.92 1178.71 1489.2 1178.11C1491.33 1173.44 1493.59 1168.81 1495.93 1164.24C1496.41 1163.28 1496.93 1162.33 1497.44 1161.37C1497.99 1160.31 1498.56 1159.27 1499.13 1158.21C1500.51 1155.65 1501.89 1153.11 1503.32 1150.59C1504.21 1149.03 1505.12 1147.47 1506.04 1145.92C1507.11 1144.11 1508.16 1142.28 1509.25 1140.49C1509.37 1140.29 1509.48 1140.08 1509.61 1139.88C1510.23 1138.88 1510.89 1137.92 1511.52 1136.92C1512.44 1135.45 1513.37 1133.97 1514.32 1132.51C1515.27 1131.05 1516.23 1129.6 1517.19 1128.16C1518.23 1126.61 1519.29 1125.09 1520.35 1123.57C1520.56 1123.28 1520.76 1122.97 1520.96 1122.68C1521.67 1121.68 1522.33 1120.67 1523.04 1119.68C1523.95 1118.4 1524.89 1117.16 1525.83 1115.91ZM1770.95 1722.49C1741.52 1720.43 1712.35 1714.87 1683.89 1706.72C1627.01 1690.05 1574.49 1659.05 1531.72 1618.29C1521.12 1608 1510.77 1597.43 1501.47 1585.96L1487.65 1568.67C1482.89 1563.01 1479.24 1556.53 1474.99 1550.52C1466.33 1538.55 1459.73 1525.29 1452.44 1512.51C1446.27 1499.11 1439.75 1485.88 1434.99 1471.92C1424.89 1444.27 1417.97 1415.49 1414.49 1386.33C1411.12 1357.17 1410.45 1327.61 1414.71 1298.53L1415.67 1298.71C1412.08 1327.67 1413.4 1357.12 1417.39 1385.95C1421.48 1414.8 1428.96 1443.13 1439.52 1470.21C1444.45 1483.91 1451.11 1496.85 1457.39 1509.93C1464.8 1522.43 1471.48 1535.35 1480.21 1546.99C1484.49 1552.84 1488.17 1559.13 1492.95 1564.61L1506.81 1581.39C1516.12 1592.49 1526.47 1602.69 1537.01 1612.61C1579.77 1651.87 1631.68 1679.99 1686.73 1697.45C1714.25 1706.37 1742.76 1712.31 1771.6 1715.76C1786.01 1717.53 1800.53 1718.61 1815.09 1719C1829.64 1719.48 1844.27 1719.24 1858.8 1718L1858.95 1718.96C1829.97 1724.09 1800.33 1724.52 1770.95 1722.49ZM1462.17 1088.97C1451.15 1105.24 1441.28 1122.24 1432.64 1139.88C1432.61 1139.92 1432.59 1139.97 1432.56 1140.01C1386.69 1233.68 1375.44 1344.47 1409.77 1451.63C1419.12 1480.83 1431.44 1508.23 1446.17 1533.72C1456.56 1551.68 1468.16 1568.68 1480.85 1584.63C1493.84 1600.93 1507.96 1616.13 1523.07 1630.17C1543.77 1649.44 1566.32 1666.45 1590.29 1681.08C1673.05 1731.57 1772.81 1753.31 1872.99 1737.52C1894.01 1734.2 1915.07 1729.27 1935.97 1722.57C1948.97 1718.4 1961.61 1713.61 1973.91 1708.33C2233.55 1501.23 2170.31 1251.05 2170.31 1251.05C2074.05 882.48 1685.48 936.107 1685.48 936.107C1858.73 873.373 2145.23 944.12 2209.23 1242.21C2274.45 1546.01 1985 1702.49 1974.16 1708.24C1981.55 1705.05 1988.81 1701.71 1995.93 1698.15C2006.47 1692.88 2016.65 1687.15 2026.57 1681.08C2050.87 1666.27 2073.32 1649.19 2093.68 1630.17C2108.88 1616 2122.96 1600.77 2135.79 1584.63C2146.59 1571.01 2156.47 1556.73 2165.48 1541.93C2226.52 1441.81 2245.48 1316.8 2206.91 1196.36C2197.88 1168.17 2186.12 1141.65 2172.07 1116.91C2166.93 1107.89 2161.45 1099.17 2155.73 1090.65C2138.12 1064.41 2117.81 1040.52 2095.24 1019.31C2074.79 1000.08 2052.52 983.08 2028.83 968.4C1928.28 906.12 1802.16 886.533 1680.69 925.427C1647.25 936.147 1616.13 950.707 1587.59 968.4C1563.6 983.267 1541.44 1000.33 1521.33 1019.31C1498.99 1040.37 1479.24 1063.8 1462.17 1088.97Z" fill="#3D3D3D"/>
<path d="M1748.16 1584.63C1750.29 1586.48 1752.37 1588.27 1754.51 1590.09C1761.04 1588.48 1767.56 1586.65 1774.07 1584.63H1748.16Z" fill="#A8E1D4"/>
<path d="M1992.65 1163.92C1990.03 1155.73 1987.12 1147.72 1983.93 1139.88H1538.13C1533 1146.73 1528.12 1153.79 1523.67 1161.15C1505.84 1190.17 1494.35 1222.89 1488.73 1256.61C1550.23 1370.27 1620.89 1461.19 1693.56 1533.72H1874.13C1985.45 1450.83 2037.35 1303.48 1992.65 1163.92Z" fill="#A8E1D4"/>
<path d="M1586.12 1088.97H1958C1941.73 1062.88 1922.13 1039.52 1899.97 1019.31H1693.08C1662.12 1034.85 1632.25 1052.2 1605.27 1073.35C1598.72 1078.35 1592.36 1083.59 1586.12 1088.97Z" fill="#A8E1D4"/>
<path d="M1940.91 1630.17H1979.91C1980 1630.12 1980.09 1630.07 1980.19 1630.01C1985.64 1626.96 1990.99 1623.75 1996.24 1620.43C1997.73 1619.48 1999.17 1618.45 2000.67 1617.49C2004.37 1615.07 2008.05 1612.61 2011.64 1610.07C2013.55 1608.72 2015.37 1607.31 2017.24 1605.93C2020.33 1603.64 2023.41 1601.32 2026.43 1598.93C2028.36 1597.4 2030.27 1595.81 2032.17 1594.24C2035.01 1591.88 2037.83 1589.49 2040.57 1587.05C2041.51 1586.23 2042.51 1585.47 2043.43 1584.63H2016.83C1994.08 1602.8 1968.65 1618.21 1940.91 1630.17Z" fill="#A8E1D4"/>
<path d="M1945.93 1019.31C1983.08 1036.12 2017.12 1059.68 2046.07 1088.97H2068.93C2068.24 1088.2 2067.56 1087.43 2066.87 1086.67C2065.21 1084.87 2063.53 1083.09 2061.84 1081.33C2060.33 1079.75 2058.81 1078.19 2057.27 1076.63C2055.55 1074.89 2053.8 1073.19 2052.04 1071.49C2050.47 1069.99 2048.89 1068.48 2047.31 1067.01C2045.51 1065.35 2043.69 1063.71 2041.87 1062.08C2040.25 1060.64 2038.63 1059.21 2036.99 1057.8C2035.13 1056.21 2033.25 1054.64 2031.36 1053.09C2029.69 1051.72 2028.03 1050.36 2026.35 1049.03C2024.41 1047.51 2022.47 1046.01 2020.51 1044.53C2018.81 1043.24 2017.11 1041.95 2015.37 1040.69C2013.39 1039.24 2011.37 1037.83 2009.36 1036.41C2007.61 1035.2 2005.87 1033.99 2004.11 1032.8C2002.05 1031.43 1999.99 1030.09 1997.91 1028.76C1996.12 1027.61 1994.33 1026.47 1992.53 1025.35C1990.43 1024.05 1988.31 1022.8 1986.17 1021.55C1984.89 1020.8 1983.6 1020.04 1982.31 1019.31H1945.93Z" fill="#A8E1D4"/>
<path d="M1484.57 1248.96C1489.91 1216.87 1500.51 1185.52 1516.97 1157.23C1520.35 1151.31 1524.01 1145.55 1527.8 1139.88H1509.64C1509.52 1140.08 1509.39 1140.28 1509.25 1140.49C1505.69 1146.29 1502.35 1152.21 1499.13 1158.21C1498.52 1159.36 1497.91 1160.51 1497.29 1161.65C1494.19 1167.61 1491.24 1173.65 1488.47 1179.79C1488.01 1180.8 1487.59 1181.83 1487.13 1182.85C1484.36 1189.15 1481.73 1195.51 1479.33 1201.96C1479.27 1202.15 1479.19 1202.31 1479.12 1202.48C1476.71 1209.03 1474.53 1215.67 1472.51 1222.35C1472.29 1223.07 1472.07 1223.79 1471.85 1224.49C1476.04 1232.77 1480.28 1240.92 1484.57 1248.96Z" fill="#A8E1D4"/>
<path d="M2087.29 1139.88C2103.61 1164.68 2116.87 1192.08 2126.37 1221.75C2161.99 1332.99 2136.24 1449.17 2067.97 1533.72H2089.71C2090.57 1532.56 2091.39 1531.36 2092.23 1530.19C2093.36 1528.63 2094.49 1527.05 2095.6 1525.47C2097.6 1522.61 2099.53 1519.73 2101.44 1516.83C2102.4 1515.36 2103.39 1513.91 2104.32 1512.43C2106.67 1508.75 2108.93 1505.03 2111.13 1501.27C2111.55 1500.55 2112 1499.84 2112.41 1499.12C2115.01 1494.61 2117.49 1490.04 2119.88 1485.41C2120.55 1484.16 2121.15 1482.87 2121.79 1481.59C2123.49 1478.21 2125.16 1474.81 2126.75 1471.37C2127.52 1469.71 2128.25 1468.04 2129 1466.36C2130.4 1463.21 2131.76 1460.04 2133.07 1456.84C2133.77 1455.12 2134.48 1453.39 2135.16 1451.65C2136.47 1448.31 2137.71 1444.93 2138.92 1441.55C2139.47 1440 2140.04 1438.45 2140.57 1436.89C2142.16 1432.27 2143.65 1427.59 2145.04 1422.88C2145.12 1422.59 2145.23 1422.31 2145.31 1422.01C2146.77 1417 2148.11 1411.93 2149.35 1406.85C2149.72 1405.33 2150.04 1403.8 2150.39 1402.28C2151.21 1398.69 2152 1395.09 2152.71 1391.48C2153.07 1389.63 2153.41 1387.77 2153.75 1385.92C2154.35 1382.53 2154.91 1379.13 2155.43 1375.72C2155.71 1373.84 2155.99 1371.95 2156.24 1370.05C2156.72 1366.43 2157.13 1362.79 2157.49 1359.13C2157.65 1357.52 2157.85 1355.91 2158 1354.29C2158.45 1349.04 2158.81 1343.79 2159.04 1338.51C2159.05 1338.08 2159.05 1337.67 2159.07 1337.25C2159.23 1332.97 2159.33 1328.69 2159.33 1324.4C2159.33 1323.77 2159.31 1323.15 2159.31 1322.53C2159.29 1321.03 2159.24 1319.51 2159.21 1318C2159.16 1314.21 2159.03 1310.41 2158.84 1306.61C2158.76 1304.88 2158.65 1303.15 2158.55 1301.41C2158.29 1297.45 2157.95 1293.48 2157.55 1289.51C2157.43 1288.19 2157.32 1286.85 2157.17 1285.53C2156.59 1280.29 2155.89 1275.04 2155.07 1269.8C2154.89 1268.68 2154.67 1267.56 2154.48 1266.45C2153.77 1262.28 2153.01 1258.11 2152.16 1253.95C2151.81 1252.23 2151.43 1250.51 2151.05 1248.8C2150.21 1245.03 2149.32 1241.28 2148.36 1237.52C2147.95 1235.91 2147.56 1234.29 2147.12 1232.68C2145.71 1227.44 2144.2 1222.2 2142.52 1216.97C2140.55 1210.81 2138.37 1204.79 2136.09 1198.83C2135.52 1197.31 2134.93 1195.81 2134.35 1194.31C2132.11 1188.67 2129.77 1183.09 2127.27 1177.63C2127.15 1177.35 2127.03 1177.05 2126.91 1176.77C2124.27 1171.07 2121.45 1165.49 2118.56 1159.99C2117.83 1158.6 2117.08 1157.21 2116.33 1155.84C2113.59 1150.81 2110.76 1145.84 2107.79 1140.97C2107.56 1140.61 2107.36 1140.24 2107.13 1139.88H2087.29Z" fill="#A8E1D4"/>
<path d="M1571.05 1088.97C1580.03 1080.59 1589.48 1072.72 1599.45 1065.57C1625.81 1046.69 1654.39 1031.17 1684.28 1019.31H1634.19C1632.43 1020.31 1630.72 1021.35 1628.99 1022.37C1626.91 1023.61 1624.8 1024.83 1622.75 1026.09C1620.83 1027.29 1618.95 1028.56 1617.04 1029.79C1615.03 1031.11 1612.99 1032.4 1610.99 1033.75C1609.12 1035.03 1607.29 1036.35 1605.45 1037.65C1603.49 1039.04 1601.53 1040.4 1599.61 1041.83C1597.79 1043.17 1596.01 1044.56 1594.23 1045.95C1592.35 1047.4 1590.44 1048.83 1588.6 1050.31C1586.84 1051.72 1585.13 1053.19 1583.4 1054.63C1581.59 1056.15 1579.75 1057.64 1577.97 1059.2C1576.28 1060.68 1574.63 1062.2 1572.97 1063.71C1571.23 1065.28 1569.47 1066.85 1567.75 1068.47C1566.11 1070.01 1564.51 1071.61 1562.89 1073.2C1561.23 1074.83 1559.56 1076.44 1557.93 1078.09C1556.35 1079.71 1554.83 1081.36 1553.28 1083C1551.68 1084.69 1550.07 1086.37 1548.49 1088.09C1548.24 1088.39 1548 1088.68 1547.73 1088.97H1571.05Z" fill="#A8E1D4"/>
<path d="M1612.21 1593.97C1632.59 1597.87 1653.44 1599.88 1674.51 1599.88C1700.99 1599.88 1727.81 1596.69 1754.51 1590.09C1752.37 1588.27 1750.29 1586.48 1748.16 1584.63H1573.28C1574 1585.27 1574.75 1585.85 1575.47 1586.48C1578.41 1589.09 1581.43 1591.63 1584.45 1594.13C1586.17 1595.55 1587.85 1597 1589.6 1598.39C1593.33 1601.36 1597.16 1604.23 1601 1607.04C1602.09 1607.84 1603.16 1608.68 1604.25 1609.47C1609.2 1613 1614.23 1616.39 1619.33 1619.64C1620.91 1620.64 1622.52 1621.57 1624.11 1622.55C1627.73 1624.79 1631.37 1626.99 1635.08 1629.09C1635.69 1629.44 1636.28 1629.84 1636.91 1630.17H1675.81C1653.39 1620.47 1632.04 1608.33 1612.21 1593.97Z" fill="#A4E0D2"/>
<path d="M1488.73 1256.61C1487.72 1262.77 1486.81 1268.96 1486.19 1275.16C1484.07 1295.29 1483.97 1315.68 1485.92 1335.89C1487.81 1356.11 1491.4 1376.28 1497.6 1395.65L1496.69 1395.99C1489.83 1376.67 1485.59 1356.55 1483.03 1336.21C1480.43 1315.88 1479.85 1295.25 1481.35 1274.73C1482.01 1266.12 1483.15 1257.52 1484.57 1248.96C1480.28 1240.92 1476.04 1232.77 1471.85 1224.49C1471.64 1225.21 1471.41 1225.92 1471.2 1226.63C1470.68 1228.44 1470.19 1230.27 1469.68 1232.09C1469.04 1234.49 1468.4 1236.89 1467.8 1239.29C1467.33 1241.16 1466.89 1243.03 1466.45 1244.89C1465.89 1247.31 1465.36 1249.71 1464.85 1252.12C1464.45 1254.01 1464.07 1255.91 1463.71 1257.8C1463.24 1260.24 1462.8 1262.68 1462.37 1265.13C1462.05 1267.01 1461.73 1268.89 1461.44 1270.79C1461.05 1273.29 1460.72 1275.8 1460.39 1278.31C1460.15 1280.16 1459.89 1282.01 1459.67 1283.87C1459.36 1286.51 1459.12 1289.16 1458.88 1291.81C1458.71 1293.55 1458.53 1295.28 1458.39 1297.03C1458.16 1299.97 1458.01 1302.95 1457.85 1305.91C1457.77 1307.36 1457.67 1308.81 1457.61 1310.28C1457.44 1314.71 1457.33 1319.15 1457.33 1323.59C1457.33 1324.21 1457.36 1324.84 1457.37 1325.47C1457.37 1326.96 1457.43 1328.48 1457.45 1329.99C1457.52 1333.77 1457.64 1337.59 1457.83 1341.39C1457.92 1343.12 1458.01 1344.84 1458.12 1346.56C1458.39 1350.53 1458.72 1354.51 1459.12 1358.48C1459.25 1359.81 1459.35 1361.13 1459.49 1362.47C1460.08 1367.71 1460.77 1372.95 1461.6 1378.19C1461.77 1379.31 1462 1380.43 1462.19 1381.55C1462.89 1385.72 1463.65 1389.88 1464.51 1394.04C1464.87 1395.76 1465.24 1397.48 1465.61 1399.2C1466.45 1402.96 1467.35 1406.72 1468.31 1410.48C1468.72 1412.09 1469.11 1413.69 1469.55 1415.29C1470.96 1420.55 1472.47 1425.79 1474.15 1431.01C1475.85 1436.33 1477.69 1441.57 1479.63 1446.75C1480.24 1448.4 1480.91 1450.03 1481.55 1451.68C1482.92 1455.2 1484.33 1458.71 1485.81 1462.16C1486.6 1464.01 1487.41 1465.85 1488.23 1467.68C1489.69 1470.95 1491.21 1474.19 1492.76 1477.39C1493.61 1479.15 1494.47 1480.91 1495.33 1482.65C1497.11 1486.16 1498.96 1489.61 1500.84 1493.05C1501.56 1494.35 1502.24 1495.68 1502.97 1496.97C1505.6 1501.64 1508.33 1506.23 1511.16 1510.75C1511.73 1511.65 1512.35 1512.53 1512.93 1513.44C1515.24 1517.04 1517.59 1520.61 1520.01 1524.11C1521.04 1525.59 1522.09 1527.03 1523.15 1528.49C1524.39 1530.23 1525.6 1532.01 1526.88 1533.72H1693.56C1620.89 1461.19 1550.23 1370.27 1488.73 1256.61Z" fill="#A4E0D2"/>
<path d="M1517.19 1128.16C1515.28 1131 1513.43 1133.89 1511.6 1136.8C1510.95 1137.83 1510.28 1138.84 1509.64 1139.88H1527.8C1540.19 1121.32 1554.73 1104.2 1571.05 1088.97H1547.73C1546.88 1089.92 1546.05 1090.89 1545.21 1091.85C1542.99 1094.37 1540.79 1096.91 1538.64 1099.49C1537.44 1100.95 1536.25 1102.41 1535.07 1103.89C1533.12 1106.32 1531.19 1108.79 1529.29 1111.27C1528.12 1112.8 1526.96 1114.35 1525.83 1115.91C1523.96 1118.44 1522.15 1121 1520.35 1123.57C1519.29 1125.09 1518.23 1126.61 1517.19 1128.16Z" fill="#96CFC5"/>
<path d="M1958 1088.97H1586.12C1568.41 1104.27 1552.12 1121.16 1538.13 1139.88H1983.93C1976.65 1121.93 1967.95 1104.93 1958 1088.97Z" fill="#96CFC5"/>
<path d="M2046.07 1088.97C2061.32 1104.4 2075.16 1121.41 2087.29 1139.88H2107.13C2107.07 1139.77 2107.01 1139.65 2106.95 1139.55C2104.29 1135.24 2101.55 1131.01 2098.72 1126.85C2098 1125.79 2097.24 1124.76 2096.51 1123.69C2094.37 1120.63 2092.21 1117.59 2090 1114.6C2088.92 1113.13 2087.79 1111.72 2086.69 1110.28C2084.75 1107.75 2082.79 1105.23 2080.77 1102.75C2079.53 1101.24 2078.28 1099.75 2077.03 1098.25C2075.05 1095.91 2073.05 1093.57 2071.03 1091.28C2070.33 1090.51 2069.64 1089.75 2068.93 1088.97H2046.07Z" fill="#96CFC5"/>
<path d="M1684.28 1019.31C1692.49 1016.04 1700.8 1013 1709.21 1010.31L1709.57 1011.2C1704.04 1013.85 1698.55 1016.56 1693.08 1019.31H1899.97C1890.63 1010.77 1880.83 1002.81 1870.63 995.427C1896.68 1000.41 1921.95 1008.45 1945.93 1019.31H1982.31C1981.68 1018.95 1981.07 1018.57 1980.44 1018.21C1979.03 1017.43 1977.6 1016.65 1976.19 1015.88C1973.88 1014.63 1971.56 1013.39 1969.23 1012.19C1967.77 1011.44 1966.31 1010.69 1964.84 1009.96C1962.4 1008.73 1959.93 1007.56 1957.47 1006.4C1956.12 1005.77 1954.79 1005.12 1953.44 1004.51C1950.17 1003.03 1946.89 1001.6 1943.57 1000.21C1943.03 999.987 1942.48 999.733 1941.92 999.493C1938.07 997.92 1934.2 996.413 1930.31 994.96C1929.03 994.493 1927.75 994.053 1926.47 993.587C1923.77 992.627 1921.07 991.68 1918.35 990.787C1916.85 990.28 1915.35 989.813 1913.84 989.333C1911.27 988.52 1908.69 987.733 1906.11 986.987C1904.57 986.547 1903.05 986.093 1901.52 985.68C1898.79 984.92 1896.04 984.213 1893.29 983.52C1891.93 983.187 1890.59 982.827 1889.23 982.507C1885.37 981.587 1881.51 980.733 1877.63 979.947C1877.37 979.893 1877.12 979.827 1876.87 979.773C1872.73 978.947 1868.57 978.213 1864.4 977.533C1863.09 977.32 1861.77 977.147 1860.47 976.947C1857.56 976.507 1854.65 976.093 1851.73 975.733C1850.19 975.533 1848.64 975.36 1847.09 975.187C1844.35 974.88 1841.6 974.613 1838.84 974.36C1837.27 974.227 1835.71 974.093 1834.13 973.973C1831.21 973.76 1828.29 973.6 1825.36 973.453C1824 973.387 1822.64 973.293 1821.27 973.253C1817 973.093 1812.71 972.987 1808.41 972.987C1807.87 972.987 1807.31 973.027 1806.75 973.027C1805.29 973.027 1803.83 973.08 1802.37 973.107C1798.55 973.173 1794.72 973.293 1790.89 973.493C1789.15 973.573 1787.4 973.68 1785.65 973.787C1781.77 974.04 1777.91 974.373 1774.03 974.76C1772.6 974.907 1771.16 975.013 1769.73 975.173C1764.53 975.76 1759.32 976.44 1754.12 977.267C1753 977.44 1751.88 977.667 1750.77 977.853C1746.6 978.547 1742.43 979.32 1738.27 980.173C1736.55 980.533 1734.83 980.907 1733.11 981.293C1729.35 982.12 1725.6 983.013 1721.85 983.973C1720.24 984.387 1718.63 984.773 1717 985.213C1711.77 986.627 1706.53 988.133 1701.32 989.8C1695.89 991.547 1690.57 993.427 1685.31 995.4C1683.68 996 1682.08 996.653 1680.47 997.28C1676.76 998.72 1673.08 1000.23 1669.45 1001.79C1667.73 1002.52 1666.03 1003.27 1664.33 1004.03C1660.49 1005.75 1656.71 1007.55 1652.95 1009.39C1651.72 1010 1650.47 1010.57 1649.24 1011.19C1644.35 1013.68 1639.52 1016.27 1634.77 1018.96C1634.57 1019.07 1634.39 1019.19 1634.19 1019.31H1684.28Z" fill="#96CFC5"/>
<path d="M2016.83 1584.63H2043.43C2044.47 1583.68 2045.45 1582.68 2046.48 1581.73C2048.64 1579.73 2050.76 1577.72 2052.87 1575.67C2054.85 1573.73 2056.83 1571.77 2058.76 1569.8C2060.83 1567.69 2062.84 1565.57 2064.85 1563.43C2066.73 1561.4 2068.59 1559.37 2070.43 1557.31C2072.37 1555.11 2074.29 1552.88 2076.19 1550.64C2077.96 1548.53 2079.72 1546.43 2081.44 1544.28C2083.28 1542 2085.07 1539.71 2086.84 1537.39C2087.79 1536.15 2088.79 1534.96 2089.71 1533.72H2067.97C2052.92 1552.36 2035.8 1569.45 2016.83 1584.63Z" fill="#96CFC5"/>
<path d="M1774.07 1584.63C1774.85 1584.37 1775.64 1584.13 1776.43 1583.88C1812.55 1572.31 1845.33 1555.17 1874.13 1533.72H1693.56H1526.88C1527.6 1534.69 1528.37 1535.6 1529.11 1536.56C1530.85 1538.85 1532.64 1541.12 1534.44 1543.36C1536.24 1545.61 1538.05 1547.84 1539.89 1550.03C1541.73 1552.21 1543.61 1554.36 1545.51 1556.49C1547.41 1558.64 1549.32 1560.79 1551.28 1562.89C1553.21 1564.97 1555.19 1567 1557.17 1569.04C1559.17 1571.08 1561.17 1573.12 1563.23 1575.11C1565.25 1577.09 1567.33 1579.03 1569.4 1580.96C1570.71 1582.17 1571.96 1583.44 1573.28 1584.63H1748.16H1774.07Z" fill="#96CFC5"/>
<path d="M1910.15 1641.69C1876.29 1652.55 1841.99 1657.69 1808.25 1657.69C1762.17 1657.69 1717.13 1648.07 1675.81 1630.17H1636.91C1638.05 1630.83 1639.25 1631.37 1640.41 1632C1644.71 1634.33 1649.04 1636.59 1653.41 1638.75C1655.31 1639.68 1657.2 1640.61 1659.11 1641.51C1664.19 1643.89 1669.31 1646.16 1674.49 1648.29C1675.51 1648.72 1676.52 1649.19 1677.55 1649.6C1683.73 1652.09 1690.01 1654.39 1696.35 1656.52C1698.04 1657.09 1699.76 1657.61 1701.47 1658.16C1706.25 1659.69 1711.08 1661.13 1715.93 1662.47C1717.97 1663.03 1720 1663.57 1722.05 1664.09C1727.28 1665.43 1732.55 1666.63 1737.84 1667.72C1739.19 1668 1740.53 1668.33 1741.89 1668.59C1748.49 1669.87 1755.13 1670.95 1761.81 1671.84C1763.48 1672.07 1765.17 1672.23 1766.84 1672.43C1771.97 1673.04 1777.12 1673.55 1782.29 1673.93C1784.45 1674.09 1786.6 1674.24 1788.76 1674.36C1794.01 1674.65 1799.28 1674.83 1804.56 1674.88C1805.8 1674.89 1807.01 1675 1808.25 1675C1808.81 1675 1809.37 1674.97 1809.93 1674.96C1811.37 1674.96 1812.81 1674.91 1814.25 1674.88C1818.11 1674.81 1821.96 1674.69 1825.81 1674.49C1827.53 1674.41 1829.25 1674.31 1830.97 1674.2C1834.89 1673.95 1838.81 1673.61 1842.75 1673.21C1844.13 1673.08 1845.52 1672.97 1846.89 1672.81C1852.12 1672.24 1857.35 1671.55 1862.57 1670.72C1863.65 1670.55 1864.75 1670.33 1865.83 1670.15C1870.03 1669.44 1874.21 1668.67 1878.41 1667.81C1880.13 1667.47 1881.84 1667.08 1883.56 1666.71C1887.32 1665.87 1891.08 1664.97 1894.83 1664.01C1896.44 1663.6 1898.05 1663.21 1899.65 1662.77C1904.89 1661.36 1910.13 1659.85 1915.36 1658.19C1921.09 1656.35 1926.76 1654.37 1932.33 1652.27C1934.16 1651.57 1935.93 1650.79 1937.75 1650.07C1941.45 1648.6 1945.17 1647.16 1948.8 1645.59C1951.05 1644.6 1953.23 1643.52 1955.45 1642.49C1958.57 1641.05 1961.71 1639.67 1964.76 1638.16C1967.12 1636.99 1969.41 1635.71 1971.73 1634.48C1974.47 1633.05 1977.23 1631.68 1979.91 1630.17H1940.91C1930.95 1634.47 1920.68 1638.32 1910.15 1641.69Z" fill="#96CFC5"/>
<path d="M2012.51 1038.59C2011.75 1038.04 2010.96 1037.53 2010.2 1037C2009.92 1036.8 2009.64 1036.61 2009.36 1036.41C2011.37 1037.83 2013.39 1039.24 2015.37 1040.69C2014.41 1039.99 2013.47 1039.28 2012.51 1038.59Z" fill="#323232"/>
<path d="M2004.11 1032.8C2002.63 1031.8 2001.13 1030.83 1999.64 1029.85C1999.07 1029.48 1998.48 1029.13 1997.91 1028.76C1999.99 1030.09 2002.05 1031.43 2004.11 1032.8Z" fill="#323232"/>
<path d="M2025.07 1047.99C2023.56 1046.81 2022.03 1045.68 2020.51 1044.53C2022.47 1046.01 2024.41 1047.51 2026.35 1049.03C2025.91 1048.69 2025.49 1048.33 2025.07 1047.99Z" fill="#323232"/>
<path d="M1477.55 1207.03C1476.93 1208.73 1476.33 1210.45 1475.75 1212.17C1474.61 1215.55 1473.55 1218.95 1472.51 1222.35C1474.53 1215.67 1476.71 1209.03 1479.12 1202.48C1478.57 1203.99 1478.08 1205.52 1477.55 1207.03Z" fill="#323232"/>
<path d="M2123.87 1170.53C2123.11 1168.95 2122.36 1167.36 2121.57 1165.8C2120.59 1163.85 2119.57 1161.92 2118.56 1159.99C2121.45 1165.49 2124.27 1171.07 2126.91 1176.77C2125.93 1174.67 2124.88 1172.61 2123.87 1170.53Z" fill="#323232"/>
<path d="M2130.91 1185.93C2130.15 1184.16 2129.37 1182.4 2128.59 1180.64C2128.15 1179.64 2127.72 1178.61 2127.27 1177.63C2129.77 1183.09 2132.11 1188.67 2134.35 1194.31C2133.23 1191.49 2132.08 1188.71 2130.91 1185.93Z" fill="#323232"/>
<path d="M2114.95 1153.28C2114.64 1152.72 2114.35 1152.13 2114.04 1151.57C2112.01 1147.99 2109.92 1144.47 2107.79 1140.97C2110.76 1145.84 2113.59 1150.81 2116.33 1155.84C2115.87 1154.99 2115.43 1154.13 2114.95 1153.28Z" fill="#323232"/>
<path d="M1604.27 1038.48C1602.72 1039.6 1601.15 1040.69 1599.61 1041.83C1601.53 1040.4 1603.49 1039.04 1605.45 1037.65C1605.05 1037.93 1604.67 1038.21 1604.27 1038.48Z" fill="#323232"/>
<path d="M2066.87 1086.67C2065.81 1085.52 2064.77 1084.37 2063.71 1083.24C2063.09 1082.59 2062.47 1081.97 2061.84 1081.33C2063.53 1083.09 2065.21 1084.87 2066.87 1086.67Z" fill="#323232"/>
<path d="M2057.27 1076.63C2055.75 1075.11 2054.2 1073.59 2052.65 1072.08C2052.45 1071.88 2052.24 1071.69 2052.04 1071.49C2053.8 1073.19 2055.55 1074.89 2057.27 1076.63Z" fill="#323232"/>
<path d="M2142.52 1216.97C2140.83 1211.68 2138.99 1206.48 2137.07 1201.32C2136.76 1200.48 2136.41 1199.65 2136.09 1198.83C2138.37 1204.79 2140.55 1210.81 2142.52 1216.97Z" fill="#323232"/>
<path d="M1552.8 1083.49C1551.36 1085.03 1549.91 1086.55 1548.49 1088.09C1550.07 1086.37 1551.68 1084.69 1553.28 1083C1553.12 1083.16 1552.96 1083.33 1552.8 1083.49Z" fill="#323232"/>
<path d="M1506.04 1145.92C1505.12 1147.47 1504.21 1149.03 1503.32 1150.59C1501.89 1153.11 1500.51 1155.65 1499.13 1158.21C1502.35 1152.21 1505.69 1146.29 1509.25 1140.49C1508.16 1142.28 1507.11 1144.11 1506.04 1145.92Z" fill="#323232"/>
<path d="M1483.11 1192.32C1482.45 1193.93 1481.84 1195.55 1481.21 1197.16C1480.59 1198.76 1479.93 1200.35 1479.33 1201.96C1481.73 1195.51 1484.36 1189.15 1487.13 1182.85C1485.75 1185.99 1484.39 1189.15 1483.11 1192.32Z" fill="#323232"/>
<path d="M1591.44 1048.08C1590.49 1048.83 1589.53 1049.56 1588.6 1050.31C1590.44 1048.83 1592.35 1047.4 1594.23 1045.95C1593.29 1046.65 1592.36 1047.36 1591.44 1048.08Z" fill="#323232"/>
<path d="M1581.63 1056.09C1580.85 1056.76 1580.04 1057.4 1579.27 1058.07C1578.84 1058.44 1578.4 1058.81 1577.97 1059.2C1579.75 1057.64 1581.59 1056.15 1583.4 1054.63C1582.81 1055.12 1582.21 1055.6 1581.63 1056.09Z" fill="#323232"/>
<path d="M1497.29 1161.65C1496.85 1162.52 1496.37 1163.37 1495.93 1164.24C1493.59 1168.81 1491.33 1173.44 1489.2 1178.11C1488.95 1178.67 1488.72 1179.23 1488.47 1179.79C1491.24 1173.65 1494.19 1167.61 1497.29 1161.65Z" fill="#323232"/>
<path d="M1471.07 1227.05C1470.59 1228.73 1470.15 1230.41 1469.68 1232.09C1470.19 1230.27 1470.68 1228.44 1471.2 1226.63C1471.16 1226.77 1471.12 1226.92 1471.07 1227.05Z" fill="#323232"/>
<path d="M1464.85 1252.12C1464.49 1253.83 1464.13 1255.52 1463.81 1257.23C1463.77 1257.41 1463.75 1257.61 1463.71 1257.8C1464.07 1255.91 1464.45 1254.01 1464.85 1252.12Z" fill="#323232"/>
<path d="M1467.09 1242.03C1466.96 1242.57 1466.85 1243.13 1466.72 1243.68C1466.63 1244.08 1466.55 1244.49 1466.45 1244.89C1466.89 1243.03 1467.33 1241.16 1467.8 1239.29C1467.56 1240.21 1467.31 1241.12 1467.09 1242.03Z" fill="#323232"/>
<path d="M1457.65 1309.21C1457.65 1309.36 1457.63 1309.51 1457.63 1309.67C1457.61 1309.87 1457.61 1310.07 1457.61 1310.28C1457.67 1308.81 1457.77 1307.36 1457.85 1305.91C1457.8 1307.01 1457.71 1308.11 1457.65 1309.21Z" fill="#323232"/>
<path d="M1458.65 1293.99C1458.56 1295 1458.47 1296.01 1458.39 1297.03C1458.53 1295.28 1458.71 1293.55 1458.88 1291.81C1458.81 1292.53 1458.72 1293.25 1458.65 1293.99Z" fill="#323232"/>
<path d="M2076.09 1097.12C2075.48 1096.4 2074.89 1095.67 2074.28 1094.95C2073.21 1093.71 2072.11 1092.51 2071.03 1091.28C2073.05 1093.57 2075.05 1095.91 2077.03 1098.25C2076.71 1097.88 2076.4 1097.49 2076.09 1097.12Z" fill="#323232"/>
<path d="M1534.65 1104.4C1533.88 1105.37 1533.07 1106.32 1532.31 1107.31C1531.28 1108.61 1530.29 1109.95 1529.29 1111.27C1531.19 1108.79 1533.12 1106.32 1535.07 1103.89C1534.93 1104.07 1534.79 1104.23 1534.65 1104.4Z" fill="#323232"/>
<path d="M2093.88 1119.99C2092.6 1118.17 2091.32 1116.37 2090 1114.6C2092.21 1117.59 2094.37 1120.63 2096.51 1123.69C2095.64 1122.45 2094.76 1121.21 2093.88 1119.99Z" fill="#323232"/>
<path d="M1517.19 1128.16C1516.23 1129.6 1515.27 1131.05 1514.32 1132.51C1513.4 1133.92 1512.49 1135.36 1511.6 1136.8C1513.43 1133.89 1515.28 1131 1517.19 1128.16Z" fill="#323232"/>
<path d="M2105.84 1137.81C2105.04 1136.52 2104.2 1135.28 2103.39 1134.01C2101.84 1131.61 2100.32 1129.2 2098.72 1126.85C2101.55 1131.01 2104.29 1135.24 2106.95 1139.55C2106.59 1138.96 2106.2 1138.39 2105.84 1137.81Z" fill="#323232"/>
<path d="M1520.35 1123.57C1522.15 1121 1523.96 1118.44 1525.83 1115.91C1524.89 1117.16 1523.95 1118.4 1523.04 1119.68C1522.33 1120.67 1521.67 1121.68 1520.96 1122.68C1520.76 1122.97 1520.56 1123.28 1520.35 1123.57Z" fill="#323232"/>
<path d="M1542.19 1095.28C1541 1096.68 1539.81 1098.08 1538.64 1099.49C1540.79 1096.91 1542.99 1094.37 1545.21 1091.85C1544.2 1092.99 1543.19 1094.13 1542.19 1095.28Z" fill="#323232"/>
<path d="M2084.27 1107.12C2083.12 1105.65 2081.95 1104.2 2080.77 1102.75C2082.79 1105.23 2084.75 1107.75 2086.69 1110.28C2085.88 1109.23 2085.09 1108.16 2084.27 1107.12Z" fill="#323232"/>
<path d="M1701.32 989.8C1696.03 991.494 1690.83 993.334 1685.67 995.254C1685.55 995.307 1685.43 995.347 1685.31 995.4C1690.57 993.427 1695.89 991.547 1701.32 989.8Z" fill="#323232"/>
<path d="M1838.25 974.307C1836.88 974.187 1835.51 974.08 1834.13 973.974C1835.71 974.094 1837.27 974.227 1838.84 974.36C1838.64 974.347 1838.44 974.32 1838.25 974.307Z" fill="#323232"/>
<path d="M1824.01 973.374C1823.52 973.347 1823.03 973.307 1822.53 973.28C1822.11 973.267 1821.69 973.267 1821.27 973.254C1822.64 973.294 1824 973.387 1825.36 973.454C1824.91 973.427 1824.47 973.387 1824.01 973.374Z" fill="#323232"/>
<path d="M1680.47 997.28C1677.05 998.614 1673.65 999.987 1670.29 1001.41C1670 1001.55 1669.73 1001.67 1669.45 1001.79C1673.08 1000.23 1676.76 998.72 1680.47 997.28Z" fill="#323232"/>
<path d="M1905.27 986.733C1904.03 986.373 1902.77 986.027 1901.52 985.68C1903.05 986.093 1904.57 986.547 1906.11 986.987C1905.83 986.907 1905.55 986.813 1905.27 986.733Z" fill="#323232"/>
<path d="M1957.47 1006.4C1956.32 1005.87 1955.19 1005.29 1954.04 1004.77C1953.84 1004.68 1953.64 1004.6 1953.44 1004.51C1954.79 1005.12 1956.12 1005.77 1957.47 1006.4Z" fill="#323232"/>
<path d="M1890.12 982.693C1890.05 982.68 1889.99 982.667 1889.93 982.653C1889.69 982.6 1889.45 982.56 1889.23 982.507C1890.59 982.827 1891.93 983.187 1893.29 983.52C1892.23 983.253 1891.17 982.96 1890.12 982.693Z" fill="#323232"/>
<path d="M1637.65 1017.36C1637.08 1017.68 1636.49 1017.97 1635.92 1018.29C1635.53 1018.51 1635.16 1018.73 1634.77 1018.96C1639.52 1016.27 1644.35 1013.68 1649.24 1011.19C1645.32 1013.17 1641.47 1015.24 1637.65 1017.36Z" fill="#323232"/>
<path d="M1664.33 1004.03C1661.15 1005.45 1658.01 1006.93 1654.89 1008.44C1654.24 1008.76 1653.6 1009.07 1652.95 1009.39C1656.71 1007.55 1660.49 1005.75 1664.33 1004.03Z" fill="#323232"/>
<path d="M1968.13 1011.61C1967.04 1011.05 1965.95 1010.51 1964.84 1009.96C1966.31 1010.69 1967.77 1011.44 1969.23 1012.19C1968.85 1012 1968.49 1011.8 1968.13 1011.61Z" fill="#323232"/>
<path d="M2135.84 1198.08C2135.35 1196.81 2134.84 1195.56 2134.35 1194.31C2134.93 1195.81 2135.52 1197.31 2136.09 1198.83C2136 1198.57 2135.93 1198.32 2135.84 1198.08Z" fill="#323232"/>
<path d="M1488.4 1179.92C1487.96 1180.89 1487.56 1181.88 1487.13 1182.85C1487.59 1181.83 1488.01 1180.8 1488.47 1179.79C1488.45 1179.83 1488.43 1179.88 1488.4 1179.92Z" fill="#323232"/>
<path d="M2031.36 1053.09C2029.83 1051.83 2028.29 1050.56 2026.73 1049.33C2026.6 1049.23 2026.47 1049.13 2026.35 1049.03C2028.03 1050.36 2029.69 1051.72 2031.36 1053.09Z" fill="#323232"/>
<path d="M2038.79 1059.31C2038.4 1058.96 2037.99 1058.65 2037.6 1058.32C2037.4 1058.15 2037.2 1057.97 2036.99 1057.8C2038.63 1059.21 2040.25 1060.64 2041.87 1062.08C2040.84 1061.16 2039.83 1060.21 2038.79 1059.31Z" fill="#323232"/>
<path d="M2061.59 1081.04C2060.16 1079.56 2058.72 1078.09 2057.27 1076.63C2058.81 1078.19 2060.33 1079.75 2061.84 1081.33C2061.76 1081.24 2061.67 1081.13 2061.59 1081.04Z" fill="#323232"/>
<path d="M1599.61 1041.83C1598.15 1042.89 1596.73 1044.03 1595.29 1045.12C1594.93 1045.39 1594.57 1045.67 1594.23 1045.95C1596.01 1044.56 1597.79 1043.17 1599.61 1041.83Z" fill="#323232"/>
<path d="M1499.13 1158.21C1498.56 1159.27 1497.99 1160.31 1497.44 1161.37C1497.39 1161.47 1497.35 1161.56 1497.29 1161.65C1497.91 1160.51 1498.52 1159.36 1499.13 1158.21Z" fill="#323232"/>
<path d="M1621.55 1026.85C1620.71 1027.37 1619.91 1027.93 1619.08 1028.45C1618.4 1028.89 1617.72 1029.35 1617.04 1029.79C1618.95 1028.56 1620.83 1027.29 1622.75 1026.09C1622.35 1026.35 1621.95 1026.6 1621.55 1026.85Z" fill="#323232"/>
<path d="M1610.99 1033.75C1610.07 1034.37 1609.17 1035.01 1608.25 1035.65C1607.31 1036.31 1606.39 1036.99 1605.45 1037.65C1607.29 1036.35 1609.12 1035.03 1610.99 1033.75Z" fill="#323232"/>
<path d="M1557.93 1078.09C1557.24 1078.79 1556.57 1079.49 1555.89 1080.2C1555 1081.12 1554.15 1082.07 1553.28 1083C1554.83 1081.36 1556.35 1079.71 1557.93 1078.09Z" fill="#323232"/>
<path d="M1567.2 1068.96C1567.12 1069.04 1567.04 1069.11 1566.96 1069.19C1565.57 1070.49 1564.25 1071.87 1562.89 1073.2C1564.51 1071.61 1566.11 1070.01 1567.75 1068.47C1567.57 1068.63 1567.37 1068.8 1567.2 1068.96Z" fill="#323232"/>
<path d="M1996.55 1027.87C1995.21 1027.03 1993.88 1026.19 1992.53 1025.35C1994.33 1026.47 1996.12 1027.61 1997.91 1028.76C1997.45 1028.47 1997 1028.16 1996.55 1027.87Z" fill="#323232"/>
<path d="M2050.41 1069.91C2049.39 1068.92 2048.35 1067.97 2047.31 1067.01C2048.89 1068.48 2050.47 1069.99 2052.04 1071.49C2051.49 1070.97 2050.96 1070.43 2050.41 1069.91Z" fill="#323232"/>
<path d="M2107.79 1140.97C2107.57 1140.61 2107.37 1140.23 2107.16 1139.88C2107.08 1139.76 2107.01 1139.65 2106.95 1139.55C2107.01 1139.65 2107.07 1139.77 2107.13 1139.88C2107.36 1140.24 2107.56 1140.61 2107.79 1140.97Z" fill="#323232"/>
<path d="M1460.87 1274.6C1460.69 1275.8 1460.56 1277.03 1460.4 1278.23C1460.39 1278.25 1460.39 1278.28 1460.39 1278.31C1460.72 1275.8 1461.05 1273.29 1461.44 1270.79C1461.25 1272.05 1461.04 1273.32 1460.87 1274.6Z" fill="#323232"/>
<path d="M1459.67 1283.87C1459.44 1285.93 1459.24 1287.99 1459.04 1290.05C1458.97 1290.64 1458.93 1291.23 1458.88 1291.81C1459.12 1289.16 1459.36 1286.51 1459.67 1283.87Z" fill="#323232"/>
<path d="M1463.32 1259.67C1462.99 1261.48 1462.69 1263.31 1462.37 1265.13C1462.8 1262.68 1463.24 1260.24 1463.71 1257.8C1463.59 1258.43 1463.44 1259.04 1463.32 1259.67Z" fill="#323232"/>
<path d="M1471.85 1224.49C1472.07 1223.79 1472.29 1223.07 1472.51 1222.35C1472.29 1223.05 1472.03 1223.72 1471.81 1224.43C1471.73 1224.71 1471.67 1225 1471.57 1225.28C1471.44 1225.73 1471.33 1226.19 1471.2 1226.63C1471.41 1225.92 1471.64 1225.21 1471.85 1224.49Z" fill="#323232"/>
<path d="M2098.72 1126.85C2098.13 1125.99 2097.52 1125.15 2096.92 1124.29C2096.79 1124.09 2096.64 1123.89 2096.51 1123.69C2097.24 1124.76 2098 1125.79 2098.72 1126.85Z" fill="#323232"/>
<path d="M1547.73 1088.97C1548 1088.68 1548.24 1088.39 1548.49 1088.09C1548.23 1088.39 1547.95 1088.68 1547.68 1088.97C1546.95 1089.79 1546.27 1090.65 1545.53 1091.48C1545.43 1091.6 1545.32 1091.72 1545.21 1091.85C1546.05 1090.89 1546.88 1089.92 1547.73 1088.97Z" fill="#323232"/>
<path d="M2090 1114.6C2089.05 1113.32 2088.08 1112.08 2087.12 1110.83C2086.97 1110.64 2086.83 1110.47 2086.69 1110.28C2087.79 1111.72 2088.92 1113.13 2090 1114.6Z" fill="#323232"/>
<path d="M1511.6 1136.8C1511.57 1136.84 1511.55 1136.88 1511.52 1136.92C1510.89 1137.92 1510.23 1138.88 1509.61 1139.88C1509.48 1140.08 1509.37 1140.29 1509.25 1140.49C1509.39 1140.28 1509.52 1140.08 1509.64 1139.88C1510.28 1138.84 1510.95 1137.83 1511.6 1136.8Z" fill="#323232"/>
<path d="M2071.03 1091.28C2070.35 1090.52 2069.71 1089.72 2069.03 1088.97C2068.32 1088.19 2067.57 1087.44 2066.87 1086.67C2067.56 1087.43 2068.24 1088.2 2068.93 1088.97C2069.64 1089.75 2070.33 1090.51 2071.03 1091.28Z" fill="#323232"/>
<path d="M1858.69 976.68C1857.76 976.547 1856.81 976.387 1855.87 976.254C1854.49 976.067 1853.12 975.907 1851.73 975.733C1854.65 976.093 1857.56 976.507 1860.47 976.947C1859.88 976.853 1859.29 976.773 1858.69 976.68Z" fill="#323232"/>
<path d="M1913.84 989.333C1911.76 988.68 1909.68 988.027 1907.59 987.413C1907.09 987.267 1906.6 987.134 1906.11 986.987C1908.69 987.734 1911.27 988.52 1913.84 989.333Z" fill="#323232"/>
<path d="M1939.52 998.546C1938.49 998.133 1937.45 997.746 1936.41 997.333C1934.39 996.533 1932.35 995.72 1930.31 994.96C1934.2 996.413 1938.07 997.92 1941.92 999.493C1941.12 999.173 1940.32 998.88 1939.52 998.546Z" fill="#323232"/>
<path d="M1924.17 992.774C1923.4 992.507 1922.64 992.214 1921.87 991.96C1920.69 991.547 1919.52 991.174 1918.35 990.787C1921.07 991.68 1923.77 992.627 1926.47 993.587C1925.69 993.32 1924.93 993.04 1924.17 992.774Z" fill="#323232"/>
<path d="M1953.25 1004.43C1950.05 1002.97 1946.83 1001.57 1943.57 1000.21C1946.89 1001.6 1950.17 1003.03 1953.44 1004.51C1953.39 1004.48 1953.32 1004.45 1953.25 1004.43Z" fill="#323232"/>
<path d="M1667.16 1002.72C1666.2 1003.15 1665.28 1003.6 1664.33 1004.03C1666.03 1003.27 1667.73 1002.52 1669.45 1001.79C1668.69 1002.11 1667.91 1002.4 1667.16 1002.72Z" fill="#323232"/>
<path d="M1976.19 1015.88C1974.19 1014.79 1972.19 1013.72 1970.16 1012.67C1969.85 1012.51 1969.53 1012.35 1969.23 1012.19C1971.56 1013.39 1973.88 1014.63 1976.19 1015.88Z" fill="#323232"/>
<path d="M1874.65 979.373C1873.6 979.173 1872.55 978.987 1871.49 978.8C1869.13 978.36 1866.77 977.92 1864.4 977.533C1868.57 978.213 1872.73 978.947 1876.87 979.773C1876.13 979.627 1875.39 979.52 1874.65 979.373Z" fill="#323232"/>
<path d="M1986.17 1021.55H1986.16C1985.17 1020.96 1984.2 1020.35 1983.21 1019.77C1982.93 1019.63 1982.68 1019.45 1982.41 1019.31C1981.76 1018.93 1981.09 1018.59 1980.44 1018.21C1981.07 1018.57 1981.68 1018.95 1982.31 1019.31C1983.6 1020.04 1984.89 1020.8 1986.17 1021.55Z" fill="#323232"/>
<path d="M1650.87 1010.37C1650.32 1010.64 1649.79 1010.92 1649.24 1011.19C1650.47 1010.57 1651.72 1010 1652.95 1009.39C1652.27 1009.72 1651.55 1010.03 1650.87 1010.37Z" fill="#323232"/>
<path d="M1683.97 995.867C1682.79 996.307 1681.65 996.814 1680.47 997.28C1682.08 996.654 1683.68 996 1685.31 995.4C1684.87 995.56 1684.41 995.694 1683.97 995.867Z" fill="#323232"/>
<path d="M1847.09 975.187C1845.04 974.96 1842.99 974.733 1840.93 974.546C1840.24 974.48 1839.53 974.426 1838.84 974.36C1841.6 974.613 1844.35 974.88 1847.09 975.187Z" fill="#323232"/>
<path d="M1634.77 1018.96C1634.56 1019.08 1634.33 1019.19 1634.12 1019.31C1632.39 1020.29 1630.71 1021.36 1628.99 1022.37C1630.72 1021.35 1632.43 1020.31 1634.19 1019.31C1634.39 1019.19 1634.57 1019.07 1634.77 1018.96Z" fill="#323232"/>
<path d="M1868.33 1881.72L1872.09 1893.48L1876.03 1905.73L1885.15 1934.24L1874.73 1901.72L1980.85 1867.73C1936.63 1834.57 1895.19 1831.87 1895.19 1831.87C1895.19 1831.87 1982.45 1803.92 2018.67 1792.32C2035.28 1787 2048.47 1791.68 2057.89 1798.31C2067.59 1805.12 2074.44 1815.28 2078.05 1826.57L2080.97 1835.67L2089.88 1832.81L2084.77 1816.83L2083.48 1812.83C2075.93 1789.25 2050.69 1776.25 2027.12 1783.8L2023.71 1784.89L1900.76 1824.27L1897.36 1825.36C1885.99 1829 1877.11 1836.77 1871.77 1846.48C1866.05 1856.89 1864.43 1869.52 1868.33 1881.72Z" fill="#F7981B"/>
<path d="M2167.97 2076.64L2126.68 1947.72L2112.32 1902.88L2110.23 1896.33L2097.35 1856.12L2106.05 1883.31L2097.15 1886.16L2263.48 2405.6C2286.83 2497.37 2196.11 2534.89 2196.11 2534.89C2223.37 2499.53 2196.96 2405.72 2196.96 2405.72C2196.96 2405.72 2112.79 2125.88 2061.44 1982.56C2050.81 1952.87 2037.43 1929.09 2022.92 1909.93L1901.29 1948.88L1982.93 2195.17L2026.75 2327.59C2041.36 2371.63 2055.56 2415.81 2068.81 2460.29C2073 2469.87 2078.76 2479.32 2085.16 2487.91C2091.59 2496.6 2098.99 2504.6 2107.44 2511.32C2115.93 2518.05 2125.72 2522.91 2136.05 2526.12C2146.47 2529.57 2157.59 2529.28 2168.59 2528.55L2168.75 2529.51C2157.81 2531.37 2146.29 2532.45 2135.16 2529.69C2124.05 2527.27 2113.4 2522.51 2104.05 2515.92C2094.75 2509.28 2086.47 2501.31 2079.27 2492.47C2072.16 2483.49 2065.97 2474.09 2060.95 2463.49L2060.91 2463.4L2060.81 2463.12C2045.72 2419.13 2031.59 2374.85 2017.88 2330.43L1976.61 2197.2L1900 1949.29L1890.91 1952.21L1940.75 2107.85L1946.24 2125.01L1948.56 2132.24L2055.77 2467.04C2074.8 2526.45 2138.39 2559.19 2197.8 2540.16C2257.21 2521.13 2289.95 2457.55 2270.92 2398.13L2185.77 2132.24L2183.45 2125.01L2167.97 2076.64Z" fill="#F7981B"/>
<path d="M1754.51 1590.09C1771.09 1604.31 1787.72 1617.67 1804.23 1630.17H1940.91C1968.65 1618.21 1994.08 1602.8 2016.83 1584.63H1774.07C1767.56 1586.65 1761.04 1588.48 1754.51 1590.09Z" fill="#9BDDD2"/>
<path d="M1992.65 1163.92C2037.35 1303.48 1985.45 1450.83 1874.13 1533.72H2067.97C2136.24 1449.17 2161.99 1332.99 2126.37 1221.75C2116.87 1192.08 2103.61 1164.68 2087.29 1139.88H1983.93C1987.12 1147.72 1990.03 1155.73 1992.65 1163.92Z" fill="#9BDDD2"/>
<path d="M1958 1088.97H2046.07C2017.12 1059.68 1983.08 1036.12 1945.93 1019.31H1899.97C1922.13 1039.52 1941.73 1062.88 1958 1088.97Z" fill="#9BDDD2"/>
<path d="M1754.51 1590.09C1727.81 1596.69 1700.99 1599.88 1674.51 1599.88C1653.44 1599.88 1632.59 1597.87 1612.21 1593.97C1632.04 1608.33 1653.39 1620.47 1675.81 1630.17H1804.23C1787.72 1617.67 1771.09 1604.31 1754.51 1590.09Z" fill="#99DCD1"/>
<path d="M1983.93 1139.88H2087.29C2075.16 1121.41 2061.32 1104.4 2046.07 1088.97H1958C1967.95 1104.93 1976.65 1121.93 1983.93 1139.88Z" fill="#95DBD0"/>
<path d="M1870.63 995.427C1880.83 1002.81 1890.63 1010.77 1899.97 1019.31H1945.93C1921.95 1008.45 1896.68 1000.41 1870.63 995.427Z" fill="#95DBD0"/>
<path d="M1776.43 1583.88C1775.64 1584.13 1774.85 1584.37 1774.07 1584.63H2016.83C2035.8 1569.45 2052.92 1552.36 2067.97 1533.72H1874.13C1845.33 1555.17 1812.55 1572.31 1776.43 1583.88Z" fill="#95DBD0"/>
<path d="M1675.81 1630.17C1717.13 1648.07 1762.17 1657.69 1808.25 1657.69C1841.99 1657.69 1876.29 1652.55 1910.15 1641.69C1920.68 1638.32 1930.95 1634.47 1940.91 1630.17H1804.23H1675.81Z" fill="#95DBD0"/>
<path d="M2061.44 1982.56C2112.79 2125.88 2196.96 2405.72 2196.96 2405.72C2196.96 2405.72 2223.37 2499.53 2196.11 2534.89C2196.11 2534.89 2286.83 2497.37 2263.48 2405.6L2097.15 1886.16L2022.92 1909.93C2037.43 1929.09 2050.81 1952.87 2061.44 1982.56Z" fill="#F28416"/>
<path d="M2057.89 1798.31C2048.47 1791.68 2035.28 1787 2018.67 1792.32C1982.45 1803.92 1895.19 1831.87 1895.19 1831.87C1895.19 1831.87 1936.63 1834.57 1980.85 1867.73L2080.97 1835.67L2078.05 1826.57C2074.44 1815.28 2067.59 1805.12 2057.89 1798.31Z" fill="#F28416"/>
<path d="M2099.05 1880.83L1881.16 1905.23L2085.88 1839.65L2099.05 1880.83ZM2089.88 1832.81L2080.97 1835.67L1980.85 1867.73L1874.73 1901.72L1885.15 1934.24L1889.47 1947.72L1890.91 1952.21L1900 1949.29L1894.24 1930.68L1895.16 1930.39L1901.29 1948.88L2022.92 1909.93L2097.15 1886.16L2106.05 1883.31L2097.35 1856.12L2094.27 1846.48L2089.88 1832.81Z" fill="#2D2D2D"/>
<path d="M1881.16 1905.23L2099.05 1880.83L2085.88 1839.65L1881.16 1905.23Z" fill="#292929"/>
<path d="M1992.47 1708.6C1992.47 1708.6 1951.57 1730.17 1884.35 1743.23C1884.35 1743.23 1990.37 1732.27 2015.67 1781.05L1992.47 1708.6Z" fill="#292929"/>
<path d="M1894.24 1930.68L1900 1949.29L1976.61 2197.2L2017.88 2330.43C2031.59 2374.85 2045.72 2419.13 2060.81 2463.12L2060.91 2463.4L2060.95 2463.49C2065.97 2474.09 2072.16 2483.49 2079.27 2492.47C2086.47 2501.31 2094.75 2509.28 2104.05 2515.92C2113.4 2522.51 2124.05 2527.27 2135.16 2529.69C2146.29 2532.45 2157.81 2531.37 2168.75 2529.51L2168.59 2528.55C2157.59 2529.28 2146.47 2529.57 2136.05 2526.12C2125.72 2522.91 2115.93 2518.05 2107.44 2511.32C2098.99 2504.6 2091.59 2496.6 2085.16 2487.91C2078.76 2479.32 2073 2469.87 2068.81 2460.29C2055.56 2415.81 2041.36 2371.63 2026.75 2327.59L1982.93 2195.17L1901.29 1948.88L1895.16 1930.39L1894.24 1930.68Z" fill="white"/>
<path d="M1900.88 1782.12C1897.19 1773.61 1893.43 1765.12 1889.2 1756.8L1888.28 1757.09C1889.67 1766.33 1891.55 1775.41 1893.48 1784.48C1894.49 1789 1894.69 1793.77 1896.77 1797.95C1898.8 1802.15 1901.2 1806.21 1905.15 1809.79L1906.08 1809.49C1907.21 1804.28 1906.8 1799.59 1906.01 1794.99C1905.29 1790.39 1902.68 1786.37 1900.88 1782.12Z" fill="white"/>
<path d="M1815.09 1719C1800.53 1718.61 1786.01 1717.53 1771.6 1715.76C1742.76 1712.31 1714.25 1706.37 1686.73 1697.45C1631.68 1679.99 1579.77 1651.87 1537.01 1612.61C1526.47 1602.69 1516.12 1592.49 1506.81 1581.39L1492.95 1564.61C1488.17 1559.13 1484.49 1552.84 1480.21 1546.99C1471.48 1535.35 1464.8 1522.43 1457.39 1509.93C1451.11 1496.85 1444.45 1483.91 1439.52 1470.21C1428.96 1443.13 1421.48 1414.8 1417.39 1385.95C1413.4 1357.12 1412.08 1327.67 1415.67 1298.71L1414.71 1298.53C1410.45 1327.61 1411.12 1357.17 1414.49 1386.33C1417.97 1415.49 1424.89 1444.27 1434.99 1471.92C1439.75 1485.88 1446.27 1499.11 1452.44 1512.51C1459.73 1525.29 1466.33 1538.55 1474.99 1550.52C1479.24 1556.53 1482.89 1563.01 1487.65 1568.67L1501.47 1585.96C1510.77 1597.43 1521.12 1608 1531.72 1618.29C1574.49 1659.05 1627.01 1690.05 1683.89 1706.72C1712.35 1714.87 1741.52 1720.43 1770.95 1722.49C1800.33 1724.52 1829.97 1724.09 1858.95 1718.96L1858.8 1718C1844.27 1719.24 1829.64 1719.48 1815.09 1719Z" fill="white"/>
<path d="M1484.57 1248.96C1483.15 1257.52 1482.01 1266.12 1481.35 1274.73C1479.85 1295.25 1480.43 1315.88 1483.03 1336.21C1485.59 1356.55 1489.83 1376.67 1496.69 1395.99L1497.6 1395.65C1491.4 1376.28 1487.81 1356.11 1485.92 1335.89C1483.97 1315.68 1484.07 1295.29 1486.19 1275.16C1486.81 1268.96 1487.72 1262.77 1488.73 1256.61C1494.35 1222.89 1505.84 1190.17 1523.67 1161.15C1528.12 1153.79 1533 1146.73 1538.13 1139.88C1552.12 1121.16 1568.41 1104.27 1586.12 1088.97C1592.36 1083.59 1598.72 1078.35 1605.27 1073.35C1632.25 1052.2 1662.12 1034.85 1693.08 1019.31C1698.55 1016.56 1704.04 1013.85 1709.57 1011.2L1709.21 1010.31C1700.8 1013 1692.49 1016.04 1684.28 1019.31C1654.39 1031.17 1625.81 1046.69 1599.45 1065.57C1589.48 1072.72 1580.03 1080.59 1571.05 1088.97C1554.73 1104.2 1540.19 1121.32 1527.8 1139.88C1524.01 1145.55 1520.35 1151.31 1516.97 1157.23C1500.51 1185.52 1489.91 1216.87 1484.57 1248.96Z" fill="white"/>
</svg>
